<?xml version="1.0" encoding="utf-8"?>
<!-- Generator: $$$/GeneralStr/196=Adobe Illustrator 27.6.0, SVG Export Plug-In . SVG Version: 6.00 Build 0)  -->
<svg version="1.1" id="Capa_1" xmlns="http://www.w3.org/2000/svg" xmlns:xlink="http://www.w3.org/1999/xlink" x="0px" y="0px"
	 viewBox="0 0 18.8 25" style="enable-background:new 0 0 18.8 25;" xml:space="preserve">
<style type="text/css">
	.st0{fill:#2978DA;}
</style>
<path id="file-word" class="st0" d="M2.3,21.9V3.1c0-0.4,0.4-0.8,0.8-0.8h7.8v3.9c0,0.9,0.7,1.6,1.6,1.6c0,0,0,0,0,0h3.9v14.1
	c0,0.4-0.4,0.8-0.8,0.8H3.1C2.7,22.7,2.3,22.3,2.3,21.9z M3.1,0C1.4,0,0,1.4,0,3.1v18.8C0,23.6,1.4,25,3.1,25h12.5
	c1.7,0,3.1-1.4,3.1-3.1V7.5c0-0.8-0.3-1.6-0.9-2.2l-4.4-4.4C12.8,0.3,12,0,11.2,0H3.1z M5.8,11.8c-0.2-0.6-0.8-1-1.5-0.8
	s-1,0.8-0.8,1.5l2.3,7.8c0.2,0.6,0.8,1,1.5,0.8c0.4-0.1,0.7-0.4,0.8-0.8l1.2-4.1l1.2,4.1c0.2,0.6,0.8,1,1.5,0.8
	c0.4-0.1,0.7-0.4,0.8-0.8l2.3-7.8c0.2-0.6-0.2-1.3-0.8-1.5s-1.3,0.2-1.5,0.8l-1.2,4.1l-1.2-4.1c-0.2-0.6-0.8-1-1.5-0.8
	c-0.4,0.1-0.7,0.4-0.8,0.8L7,15.8L5.8,11.8z"/>
</svg>
