<svg xmlns="http://www.w3.org/2000/svg" width="25" height="25" viewBox="0 0 25 25">
  <path id="volume-low" d="M8.923,41.481l6.256-5.558V53.077L8.923,47.519a1.346,1.346,0,0,0-.887-.34H3.125a.448.448,0,0,1-.446-.446V42.268a.448.448,0,0,1,.446-.446H8.036A1.324,1.324,0,0,0,8.923,41.481ZM16.194,32a1.68,1.68,0,0,0-1.1.419L7.528,39.143h-4.4A3.127,3.127,0,0,0,0,42.268v4.464a3.127,3.127,0,0,0,3.125,3.125h4.4l7.561,6.724a1.68,1.68,0,0,0,1.1.419,1.66,1.66,0,0,0,1.663-1.663V33.663A1.66,1.66,0,0,0,16.194,32Zm6.83,8.343a1.341,1.341,0,0,0-1.691,2.081,2.681,2.681,0,0,1,0,4.157,1.341,1.341,0,1,0,1.691,2.081,5.368,5.368,0,0,0,0-8.32Z" transform="translate(0 -32)"/>
</svg>
