<?xml version="1.0" encoding="utf-8"?>
<!-- Generator: $$$/GeneralStr/196=Adobe Illustrator 27.6.0, SVG Export Plug-In . SVG Version: 6.00 Build 0)  -->
<svg version="1.1" id="Capa_1" xmlns="http://www.w3.org/2000/svg" xmlns:xlink="http://www.w3.org/1999/xlink" x="0px" y="0px"
	 viewBox="0 0 24.2 25" style="enable-background:new 0 0 24.2 25;" xml:space="preserve">
<style type="text/css">
	.st0{fill:#C10914;}
</style>
<path id="file-pdf" class="st0" d="M3.1,22.7h1.6V25H3.1C1.4,25,0,23.6,0,21.9V3.1C0,1.4,1.4,0,3.1,0h8.1c0.8,0,1.6,0.3,2.2,0.9
	l4.4,4.4c0.6,0.6,0.9,1.4,0.9,2.2v6.5h-2.3V7.8h-3.9c-0.9,0-1.6-0.7-1.6-1.6c0,0,0,0,0,0V2.3H3.1c-0.4,0-0.8,0.4-0.8,0.8v18.8
	C2.3,22.3,2.7,22.7,3.1,22.7z M8.6,17.2h1.6c1.5,0,2.7,1.2,2.7,2.7c0,1.5-1.2,2.7-2.7,2.7H9.4v1.6C9.4,24.6,9,25,8.6,25
	s-0.8-0.3-0.8-0.8V18C7.8,17.5,8.2,17.2,8.6,17.2L8.6,17.2z M10.2,21.1c0.6,0,1.2-0.5,1.2-1.2c0-0.6-0.5-1.2-1.2-1.2c0,0,0,0,0,0
	H9.4v2.3H10.2z M14.8,17.2h1.6c1.3,0,2.3,1,2.3,2.3v3.1c0,1.3-1,2.3-2.3,2.3c0,0,0,0,0,0h-1.6c-0.4,0-0.8-0.4-0.8-0.8V18
	C14.1,17.5,14.4,17.2,14.8,17.2L14.8,17.2z M16.4,23.4c0.4,0,0.8-0.4,0.8-0.8v-3.1c0-0.4-0.4-0.8-0.8-0.8h-0.8v4.7L16.4,23.4z
	 M20.3,18c0-0.4,0.4-0.8,0.8-0.8h2.3c0.4,0,0.8,0.3,0.8,0.8s-0.3,0.8-0.8,0.8h-1.6v1.6h1.6c0.4,0,0.8,0.3,0.8,0.8s-0.3,0.8-0.8,0.8
	h-1.6v2.3c0,0.4-0.3,0.8-0.8,0.8s-0.8-0.3-0.8-0.8L20.3,18L20.3,18z"/>
</svg>
