<svg xmlns="http://www.w3.org/2000/svg" width="28.571" height="25" viewBox="0 0 28.571 25">
  <path id="image" d="M25,34.679a.9.9,0,0,1,.893.893V53.417l-.279-.363-7.589-9.821a1.343,1.343,0,0,0-2.121,0l-4.632,5.993-1.7-2.383a1.336,1.336,0,0,0-2.176.006L2.93,53.1l-.251.346V35.571a.9.9,0,0,1,.893-.893ZM3.571,32A3.575,3.575,0,0,0,0,35.571V53.429A3.575,3.575,0,0,0,3.571,57H25a3.575,3.575,0,0,0,3.571-3.571V35.571A3.575,3.575,0,0,0,25,32ZM8.036,42.714a2.679,2.679,0,1,0-2.679-2.679A2.679,2.679,0,0,0,8.036,42.714Z" transform="translate(0 -32)"/>
</svg>
