<svg xmlns="http://www.w3.org/2000/svg" width="18.75" height="25" viewBox="0 0 18.75 25">
  <path id="file-powerpoint" d="M3.125,22.656a.784.784,0,0,1-.781-.781V3.125a.784.784,0,0,1,.781-.781h7.813V6.25A1.561,1.561,0,0,0,12.5,7.813h3.906V21.875a.784.784,0,0,1-.781.781ZM3.125,0A3.128,3.128,0,0,0,0,3.125v18.75A3.128,3.128,0,0,0,3.125,25h12.5a3.128,3.128,0,0,0,3.125-3.125V7.544a3.126,3.126,0,0,0-.913-2.212L13.413.913A3.115,3.115,0,0,0,11.206,0ZM6.641,10.156a1.169,1.169,0,0,0-1.172,1.172v7.813a1.172,1.172,0,0,0,2.344,0V17.578H9.961a3.711,3.711,0,0,0,0-7.422Zm3.32,5.078H7.813V12.5H9.961a1.367,1.367,0,0,1,0,2.734Z" fill="#f01616"/>
</svg>
