<svg xmlns="http://www.w3.org/2000/svg" width="18.75" height="25" viewBox="0 0 18.75 25">
  <path id="file-word" d="M2.344,21.875V3.125a.784.784,0,0,1,.781-.781h7.813V6.25A1.561,1.561,0,0,0,12.5,7.813h3.906V21.875a.784.784,0,0,1-.781.781H3.125A.784.784,0,0,1,2.344,21.875ZM3.125,0A3.128,3.128,0,0,0,0,3.125v18.75A3.128,3.128,0,0,0,3.125,25h12.5a3.128,3.128,0,0,0,3.125-3.125V7.544a3.126,3.126,0,0,0-.913-2.212L13.413.913A3.115,3.115,0,0,0,11.206,0ZM5.811,11.772a1.172,1.172,0,0,0-2.246.674l2.344,7.813a1.173,1.173,0,0,0,2.246,0l1.221-4.072L10.6,20.259a1.173,1.173,0,0,0,2.246,0l2.344-7.813a1.172,1.172,0,0,0-2.246-.674l-1.221,4.072L10.5,11.772a1.173,1.173,0,0,0-2.246,0L7.031,15.845Z" fill="#2978da"/>
</svg>
