<?xml version="1.0" encoding="utf-8"?>
<!-- Generator: $$$/GeneralStr/196=Adobe Illustrator 27.6.0, SVG Export Plug-In . SVG Version: 6.00 Build 0)  -->
<svg version="1.1" id="Capa_1" xmlns="http://www.w3.org/2000/svg" xmlns:xlink="http://www.w3.org/1999/xlink" x="0px" y="0px"
	 viewBox="0 0 28.6 25" style="enable-background:new 0 0 28.6 25;" xml:space="preserve">
<path id="image" d="M25,2.7c0.5,0,0.9,0.4,0.9,0.9v17.8l-0.3-0.4L18,11.2c-0.5-0.6-1.3-0.7-1.9-0.2c-0.1,0.1-0.2,0.1-0.2,0.2l-4.6,6
	l-1.7-2.4c-0.4-0.6-1.3-0.7-1.9-0.3c-0.1,0.1-0.2,0.2-0.3,0.3l-4.5,6.3l-0.3,0.3V3.6c0-0.5,0.4-0.9,0.9-0.9L25,2.7z M3.6,0
	C1.6,0,0,1.6,0,3.6v17.9c0,2,1.6,3.6,3.6,3.6H25c2,0,3.6-1.6,3.6-3.6V3.6C28.6,1.6,27,0,25,0H3.6z M8,10.7c1.5,0,2.7-1.2,2.7-2.7
	c0-1.5-1.2-2.7-2.7-2.7S5.4,6.6,5.4,8C5.4,9.5,6.6,10.7,8,10.7L8,10.7z"/>
</svg>
