<svg xmlns="http://www.w3.org/2000/svg" width="18.75" height="25" viewBox="0 0 18.75 25">
  <path id="file-excel" d="M2.344,21.875V3.125a.784.784,0,0,1,.781-.781h7.813V6.25A1.561,1.561,0,0,0,12.5,7.813h3.906V21.875a.784.784,0,0,1-.781.781H3.125A.784.784,0,0,1,2.344,21.875ZM3.125,0A3.128,3.128,0,0,0,0,3.125v18.75A3.128,3.128,0,0,0,3.125,25h12.5a3.128,3.128,0,0,0,3.125-3.125V7.544a3.126,3.126,0,0,0-.913-2.212L13.413.913A3.115,3.115,0,0,0,11.206,0ZM7.563,11.392a1.173,1.173,0,1,0-1.851,1.44l2.178,2.793-2.173,2.8a1.173,1.173,0,1,0,1.851,1.44l1.807-2.329,1.812,2.324a1.173,1.173,0,1,0,1.851-1.44l-2.178-2.793,2.173-2.8a1.173,1.173,0,1,0-1.851-1.44L9.375,13.716Z" fill="#039a26"/>
</svg>
