<svg xmlns="http://www.w3.org/2000/svg" width="24.219" height="25" viewBox="0 0 24.219 25">
  <path id="file-pdf" d="M3.125,22.656H4.688V25H3.125A3.128,3.128,0,0,1,0,21.875V3.125A3.128,3.128,0,0,1,3.125,0h8.081a3.126,3.126,0,0,1,2.212.913l4.419,4.419a3.126,3.126,0,0,1,.913,2.212v6.519H16.406V7.813H12.5A1.561,1.561,0,0,1,10.938,6.25V2.344H3.125a.784.784,0,0,0-.781.781v18.75A.784.784,0,0,0,3.125,22.656Zm5.469-5.469h1.563a2.734,2.734,0,1,1,0,5.469H9.375v1.562a.781.781,0,0,1-1.563,0v-6.25A.784.784,0,0,1,8.594,17.188Zm1.563,3.906a1.172,1.172,0,1,0,0-2.344H9.375v2.344Zm4.688-3.906h1.563a2.344,2.344,0,0,1,2.344,2.344v3.125A2.344,2.344,0,0,1,16.406,25H14.844a.784.784,0,0,1-.781-.781v-6.25A.784.784,0,0,1,14.844,17.188Zm1.563,6.25a.784.784,0,0,0,.781-.781V19.531a.784.784,0,0,0-.781-.781h-.781v4.688Zm3.906-5.469a.784.784,0,0,1,.781-.781h2.344a.781.781,0,1,1,0,1.562H21.875v1.563h1.563a.781.781,0,1,1,0,1.563H21.875v2.344a.781.781,0,0,1-1.563,0v-6.25Z" fill="#c10914"/>
</svg>
