<?xml version="1.0" encoding="utf-8"?>
<!-- Generator: $$$/GeneralStr/196=Adobe Illustrator 27.6.0, SVG Export Plug-In . SVG Version: 6.00 Build 0)  -->
<svg version="1.1" id="Capa_1" xmlns="http://www.w3.org/2000/svg" xmlns:xlink="http://www.w3.org/1999/xlink" x="0px" y="0px"
	 viewBox="0 0 18.8 25" style="enable-background:new 0 0 18.8 25;" xml:space="preserve">
<style type="text/css">
	.st0{fill:#039A26;}
</style>
<path id="file-excel" class="st0" d="M2.3,21.9V3.1c0-0.4,0.4-0.8,0.8-0.8h7.8v3.9c0,0.9,0.7,1.6,1.6,1.6c0,0,0,0,0,0h3.9v14.1
	c0,0.4-0.4,0.8-0.8,0.8H3.1C2.7,22.7,2.3,22.3,2.3,21.9z M3.1,0C1.4,0,0,1.4,0,3.1v18.8C0,23.6,1.4,25,3.1,25h12.5
	c1.7,0,3.1-1.4,3.1-3.1V7.5c0-0.8-0.3-1.6-0.9-2.2l-4.4-4.4C12.8,0.3,12,0,11.2,0H3.1z M7.6,11.4c-0.4-0.5-1.1-0.6-1.6-0.2
	s-0.6,1.1-0.2,1.6c0,0,0,0,0,0l2.2,2.8l-2.2,2.8c-0.4,0.5-0.3,1.2,0.2,1.7c0.5,0.4,1.2,0.3,1.7-0.2c0,0,0,0,0,0l1.8-2.3l1.8,2.3
	c0.4,0.5,1.1,0.6,1.6,0.2c0.5-0.4,0.6-1.1,0.2-1.6c0,0,0,0,0,0l-2.2-2.8l2.2-2.8c0.4-0.5,0.3-1.2-0.2-1.7c-0.5-0.4-1.2-0.3-1.7,0.2
	c0,0,0,0,0,0l-1.8,2.3L7.6,11.4z"/>
</svg>
