<?xml version="1.0" encoding="utf-8"?>
<!-- Generator: $$$/GeneralStr/196=Adobe Illustrator 27.6.0, SVG Export Plug-In . SVG Version: 6.00 Build 0)  -->
<svg version="1.1" id="Capa_1" xmlns="http://www.w3.org/2000/svg" xmlns:xlink="http://www.w3.org/1999/xlink" x="0px" y="0px"
	 viewBox="0 0 25 25" style="enable-background:new 0 0 25 25;" xml:space="preserve">
<path id="volume-low" d="M8.9,9.5l6.3-5.6v17.2l-6.3-5.6c-0.2-0.2-0.6-0.3-0.9-0.3H3.1c-0.2,0-0.4-0.2-0.4-0.4v-4.5
	c0-0.2,0.2-0.4,0.4-0.4H8C8.4,9.8,8.7,9.7,8.9,9.5z M16.2,0c-0.4,0-0.8,0.2-1.1,0.4L7.5,7.1H3.1C1.4,7.1,0,8.5,0,10.3v4.5
	c0,1.7,1.4,3.1,3.1,3.1h4.4l7.6,6.7c0.3,0.3,0.7,0.4,1.1,0.4c0.9,0,1.7-0.7,1.7-1.7c0,0,0,0,0,0V1.7C17.9,0.7,17.1,0,16.2,0z
	 M23,8.3c-0.6-0.5-1.4-0.4-1.9,0.2c-0.4,0.6-0.4,1.4,0.2,1.8c1.1,0.9,1.3,2.6,0.4,3.8c-0.1,0.1-0.2,0.3-0.4,0.4
	c-0.6,0.5-0.7,1.3-0.2,1.9c0.5,0.6,1.3,0.7,1.9,0.2c0,0,0,0,0,0c2.3-1.9,2.6-5.3,0.8-7.6C23.6,8.8,23.3,8.6,23,8.3L23,8.3z"/>
</svg>
