<?xml version="1.0" encoding="utf-8"?>
<!-- Generator: $$$/GeneralStr/196=Adobe Illustrator 27.6.0, SVG Export Plug-In . SVG Version: 6.00 Build 0)  -->
<svg version="1.1" id="Capa_1" xmlns="http://www.w3.org/2000/svg" xmlns:xlink="http://www.w3.org/1999/xlink" x="0px" y="0px"
	 viewBox="0 0 18.8 25" style="enable-background:new 0 0 18.8 25;" xml:space="preserve">
<style type="text/css">
	.st0{fill:#F01616;}
</style>
<path id="file-powerpoint" class="st0" d="M3.1,22.7c-0.4,0-0.8-0.4-0.8-0.8V3.1c0-0.4,0.4-0.8,0.8-0.8h7.8v3.9
	c0,0.9,0.7,1.6,1.6,1.6c0,0,0,0,0,0h3.9v14.1c0,0.4-0.4,0.8-0.8,0.8H3.1z M3.1,0C1.4,0,0,1.4,0,3.1v18.8C0,23.6,1.4,25,3.1,25h12.5
	c1.7,0,3.1-1.4,3.1-3.1V7.5c0-0.8-0.3-1.6-0.9-2.2l-4.4-4.4C12.8,0.3,12,0,11.2,0H3.1z M6.6,10.2c-0.6,0-1.2,0.5-1.2,1.2
	c0,0,0,0,0,0v7.8c0,0.6,0.5,1.2,1.2,1.2c0.6,0,1.2-0.5,1.2-1.2v-1.6H10c2,0,3.7-1.7,3.7-3.7S12,10.2,10,10.2L6.6,10.2z M10,15.2H7.8
	v-2.7H10c0.8,0,1.4,0.6,1.4,1.4C11.3,14.6,10.7,15.2,10,15.2z"/>
</svg>
