<?xml version="1.0" encoding="utf-8"?>
<!-- Generator: $$$/GeneralStr/196=Adobe Illustrator 27.6.0, SVG Export Plug-In . SVG Version: 6.00 Build 0)  -->
<svg version="1.1" id="Capa_1" xmlns="http://www.w3.org/2000/svg" xmlns:xlink="http://www.w3.org/1999/xlink" x="0px" y="0px"
	 viewBox="0 0 30 20" style="enable-background:new 0 0 30 20;" xml:space="preserve">
<path id="video" d="M0,3.3C0,1.5,1.5,0,3.3,0h13.3C18.5,0,20,1.5,20,3.3v13.3c0,1.8-1.5,3.3-3.3,3.3H3.3C1.5,20,0,18.5,0,16.7V3.3z
	 M29.1,1.9C29.7,2.2,30,2.7,30,3.3v13.3c0,0.9-0.7,1.7-1.7,1.7c-0.3,0-0.7-0.1-0.9-0.3l-5-3.3l-0.7-0.5V5.8l0.7-0.5l5-3.3
	C27.9,1.6,28.6,1.6,29.1,1.9L29.1,1.9z"/>
</svg>
