<?xml version="1.0" encoding="utf-8"?>
<!-- Generator: Adobe Illustrator 28.1.0, SVG Export Plug-In . SVG Version: 6.00 Build 0)  -->
<svg version="1.1" id="Capa_1" xmlns="http://www.w3.org/2000/svg" xmlns:xlink="http://www.w3.org/1999/xlink" x="0px" y="0px"
	 viewBox="0 0 18.9 16.8" style="enable-background:new 0 0 18.9 16.8;" xml:space="preserve">
<style type="text/css">
	.st0{fill:#B3DAE8;stroke:#3366CC;stroke-width:0.5;stroke-miterlimit:10;}
</style>
<path id="envelopes-bulk" class="st0" d="M3.2,0C2.6,0,2.1,0.5,2.1,1.1l0,0v6.3h3.2V6.3c0-1.2,0.9-2.1,2.1-2.1h7.4V1.1
	c0-0.6-0.5-1.1-1.1-1.1l0,0H3.2z M7.4,5.3c-0.6,0-1.1,0.5-1.1,1.1l0,0v1.1h3.2c1.2,0,2.1,0.9,2.1,2.1v4.2h6.3c0.6,0,1.1-0.5,1.1-1.1
	l0,0V6.3c0-0.6-0.5-1.1-1.1-1.1l0,0L7.4,5.3L7.4,5.3z M15.3,7.4h1.1c0.3,0,0.5,0.2,0.5,0.5V9c0,0.3-0.2,0.5-0.5,0.5h-1.1
	c-0.3,0-0.5-0.2-0.5-0.5V8C14.7,7.6,15,7.4,15.3,7.4L15.3,7.4L15.3,7.4z M1.1,8.4C0.5,8.4,0,8.9,0,9.5l0,0v0.4l5.1,3.8
	c0.1,0.1,0.2,0.1,0.3,0l5.1-3.8V9.5c0-0.6-0.5-1.1-1.1-1.1l0,0H1.1z M10.5,11.2L6,14.5c-0.5,0.3-1.1,0.3-1.6,0L0,11.2v4.6
	c0,0.6,0.5,1.1,1.1,1.1l0,0h8.4c0.6,0,1.1-0.5,1.1-1.1l0,0v-4.6H10.5z"/>
</svg>
