<?xml version="1.0" encoding="utf-8"?>
<!-- Generator: Adobe Illustrator 28.1.0, SVG Export Plug-In . SVG Version: 6.00 Build 0)  -->
<svg version="1.1" id="Capa_1" xmlns="http://www.w3.org/2000/svg" xmlns:xlink="http://www.w3.org/1999/xlink" x="0px" y="0px"
	 viewBox="0 0 22.1 15.5" style="enable-background:new 0 0 22.1 15.5;" xml:space="preserve">
<style type="text/css">
	.st0{fill:#3366CC;}
</style>
<path id="graduation-cap" class="st0" d="M11,0c-0.3,0-0.6,0-0.8,0.1L0.5,3.6C0.1,3.8-0.1,4.3,0.1,4.7c0.1,0.2,0.3,0.4,0.5,0.5
	l2,0.7C2,6.8,1.7,7.9,1.7,9v1c0,1-0.3,1.9-0.8,2.8c-0.2,0.5-0.5,0.9-0.8,1.3c-0.2,0.2-0.1,0.6,0.1,0.8c0.1,0,0.1,0.1,0.2,0.1
	l2.2,0.6c0.1,0,0.3,0,0.4-0.1c0.1-0.1,0.2-0.2,0.2-0.4c0.2-1.2,0.2-2.5-0.1-3.8c-0.1-0.5-0.3-1-0.5-1.5V9c0-1,0.3-2,1-2.8
	c0.5-0.5,1-1,1.7-1.2l5.4-2.1c0.3-0.1,0.6,0,0.7,0.3s0,0.6-0.3,0.7c0,0,0,0-0.1,0L5.8,6C5.4,6.1,5,6.4,4.7,6.7l5.5,2
	c0.5,0.2,1.1,0.2,1.6,0l9.7-3.5C22,5,22.2,4.6,22,4.1c-0.1-0.2-0.3-0.4-0.5-0.5l-9.7-3.5C11.6,0,11.3,0,11,0z M4.4,13
	c0,1.2,3,2.5,6.6,2.5s6.6-1.3,6.6-2.5l-0.5-5l-4.9,1.8c-0.8,0.3-1.6,0.3-2.4,0L4.9,8L4.4,13z"/>
</svg>
