<?xml version="1.0" encoding="UTF-8"?>
<svg id="Capa_2" data-name="Capa 2" xmlns="http://www.w3.org/2000/svg" viewBox="0 0 34 34">
  <defs>
    <style>
      .cls-1 {
        fill: none;
        stroke: #3c63ad;
      }

      .cls-2 {
        fill: #3c63ad;
      }

      .cls-2, .cls-3 {
        stroke-width: 0px;
      }

      .cls-3 {
        fill: #fff;
      }
    </style>
  </defs>
  <g id="Capa_1-2" data-name="Capa 1">
    <g>
      <g id="Ellipse_87" data-name="Ellipse 87">
        <circle class="cls-2" cx="17" cy="17" r="17"/>
        <circle class="cls-1" cx="17" cy="17" r="16.5"/>
      </g>
      <path id="people-group" class="cls-3" d="m8.44,10.9c0-1.05.85-1.9,1.9-1.9s1.9.85,1.9,1.9-.85,1.9-1.9,1.9-1.9-.85-1.9-1.9h0Zm-.27,5.35c-.72.82-.72,2.05,0,2.87v-2.87Zm4.9-1.67c-1.95,1.73-2.2,4.7-.55,6.73v.73c0,.6-.49,1.09-1.08,1.09h-2.18c-.6,0-1.09-.49-1.09-1.08,0,0,0,0,0,0v-.91c-1.9-.89-2.72-3.15-1.83-5.05.63-1.34,1.97-2.19,3.45-2.19h1.09c.78,0,1.55.24,2.19.69h0Zm8.14,7.46v-.73c1.64-2.03,1.4-5-.56-6.73.64-.45,1.4-.69,2.19-.69h1.09c2.1,0,3.81,1.69,3.82,3.78,0,1.48-.85,2.83-2.19,3.46v.91c0,.6-.49,1.09-1.08,1.09h-2.18c-.6,0-1.09-.49-1.09-1.09h0Zm.27-11.14c0-1.05.85-1.9,1.9-1.9s1.9.85,1.9,1.9c0,1.05-.85,1.9-1.9,1.9s-1.9-.85-1.9-1.9h0Zm4.07,5.35v2.88c.72-.82.72-2.05,0-2.87h0Zm-8.69-7.26c1.2,0,2.17.97,2.17,2.17s-.97,2.17-2.17,2.17-2.17-.97-2.17-2.17.97-2.17,2.17-2.17h0Zm-2.72,9.24c0,.53.19,1.04.54,1.44v-2.87c-.35.4-.54.91-.54,1.44Zm4.89-1.44v2.88c.72-.82.72-2.05,0-2.87h0Zm2.17,1.44c0,1.47-.85,2.81-2.17,3.44v1.45c0,.6-.49,1.09-1.08,1.09h-2.18c-.6,0-1.09-.49-1.09-1.08,0,0,0,0,0,0v-1.45c-1.9-.89-2.72-3.15-1.83-5.05.63-1.34,1.98-2.19,3.46-2.19h1.09c2.1,0,3.8,1.7,3.8,3.8,0,0,0,0,0,0h0Z"/>
    </g>
  </g>
</svg>