<?xml version="1.0" encoding="UTF-8"?><svg id="Capa_2" xmlns="http://www.w3.org/2000/svg" viewBox="0 0 14.99 17.02"><defs><style>.cls-1{fill:#fff;}</style></defs><g id="Capa_1-2"><path id="bell" class="cls-1" d="m7.49,0c-.6,0-1.1.5-1.1,1.1h0v.6c-2.5.5-4.3,2.7-4.3,5.2v.6c0,1.6-.6,3.1-1.6,4.3l-.2.3c-.4.4-.4,1.1.1,1.5.2.2.5.3.7.3h12.8c.6,0,1.1-.5,1.1-1.1,0-.3-.1-.5-.3-.7l-.2-.3c-1-1.2-1.6-2.7-1.6-4.3v-.6c0-2.5-1.8-4.7-4.3-5.2v-.6c-.1-.6-.5-1.1-1.1-1.1h0Zm1.5,16.4c.4-.4.6-.9.6-1.5h-4.3c0,1.2,1,2.1,2.1,2.1.6.1,1.2-.2,1.6-.6Z"/></g></svg>