<?xml version="1.0" encoding="utf-8"?>
<!-- Generator: $$$/GeneralStr/196=Adobe Illustrator 27.6.0, SVG Export Plug-In . SVG Version: 6.00 Build 0)  -->
<svg version="1.1" id="Capa_1" xmlns="http://www.w3.org/2000/svg" xmlns:xlink="http://www.w3.org/1999/xlink" x="0px" y="0px"
	 viewBox="0 0 35 35" style="enable-background:new 0 0 35 35;" xml:space="preserve">
<style type="text/css">
	.st0{fill:#3366CC;}
	.st1{fill:#FFFFFF;}
</style>
<circle class="st0" cx="17.5" cy="17.5" r="17.5"/>
<path id="calendar-days" class="st1" d="M14.3,9.1c0.6,0,1.1,0.5,1.1,1.1c0,0,0,0,0,0v1.1h4.2v-1.1c0-0.6,0.5-1,1.1-1
	c0.6,0,1,0.5,1,1v1.1h1.6c0.9,0,1.6,0.7,1.6,1.6v1.6H10.1v-1.6c0-0.9,0.7-1.6,1.6-1.6h1.6v-1.1C13.3,9.5,13.7,9.1,14.3,9.1
	C14.3,9.1,14.3,9.1,14.3,9.1z M10.1,15.4h14.8v9c0,0.9-0.7,1.6-1.6,1.6H11.7c-0.9,0-1.6-0.7-1.6-1.6V15.4z M12.2,18v1.1
	c0,0.3,0.2,0.5,0.5,0.5h1.1c0.3,0,0.5-0.2,0.5-0.5V18c0-0.3-0.2-0.5-0.5-0.5h-1.1C12.5,17.5,12.2,17.7,12.2,18z M16.4,18v1.1
	c0,0.3,0.2,0.5,0.5,0.5H18c0.3,0,0.5-0.2,0.5-0.5V18c0-0.3-0.2-0.5-0.5-0.5H17C16.7,17.5,16.4,17.7,16.4,18z M21.2,17.5
	c-0.3,0-0.5,0.2-0.5,0.5v1.1c0,0.3,0.2,0.5,0.5,0.5h1.1c0.3,0,0.5-0.2,0.5-0.5V18c0-0.3-0.2-0.5-0.5-0.5H21.2z M12.2,22.3v1.1
	c0,0.3,0.2,0.5,0.5,0.5h1.1c0.3,0,0.5-0.2,0.5-0.5v-1.1c0-0.3-0.2-0.5-0.5-0.5h-1.1C12.5,21.7,12.2,22,12.2,22.3z M17,21.7
	c-0.3,0-0.5,0.2-0.5,0.5v1.1c0,0.3,0.2,0.5,0.5,0.5H18c0.3,0,0.5-0.2,0.5-0.5v-1.1c0-0.3-0.2-0.5-0.5-0.5H17z M20.7,22.3v1.1
	c0,0.3,0.2,0.5,0.5,0.5h1.1c0.3,0,0.5-0.2,0.5-0.5v-1.1c0-0.3-0.2-0.5-0.5-0.5h-1.1C20.9,21.7,20.7,22,20.7,22.3L20.7,22.3z"/>
</svg>
