<?xml version="1.0" encoding="utf-8"?>
<!-- Generator: Adobe Illustrator 28.1.0, SVG Export Plug-In . SVG Version: 6.00 Build 0)  -->
<svg version="1.1" id="Capa_1" xmlns="http://www.w3.org/2000/svg" xmlns:xlink="http://www.w3.org/1999/xlink" x="0px" y="0px"
	 viewBox="0 0 22.2 17.3" style="enable-background:new 0 0 22.2 17.3;" xml:space="preserve">
<style type="text/css">
	.st0{fill:#B3DAE8;stroke:#3366CC;stroke-width:0.5;stroke-miterlimit:10;}
</style>
<path id="sitemap" class="st0" d="M8,1.9C8,0.8,8.9,0,9.9,0h2.5c1,0,1.9,0.8,1.9,1.9v2.5c0,1-0.8,1.9-1.9,1.9H12v1.5h5.9
	c1.2,0,2.2,1,2.2,2.2v1.2h0.3c1,0,1.9,0.8,1.9,1.9v2.5c0,1-0.8,1.9-1.9,1.9h-2.5c-1,0-1.9-0.8-1.9-1.9V13c0-1,0.8-1.9,1.9-1.9h0.3
	V9.9c0-0.2-0.1-0.3-0.3-0.3H12v1.5h0.3c1,0,1.9,0.8,1.9,1.9v2.5c0,1-0.8,1.9-1.9,1.9H9.9c-1,0-1.9-0.8-1.9-1.9V13
	c0-1,0.8-1.9,1.9-1.9h0.3V9.6H4.3C4.1,9.6,4,9.7,4,9.9v1.2h0.3c1,0,1.9,0.8,1.9,1.9v2.5c0,1-0.8,1.9-1.9,1.9H1.9
	c-1,0-1.9-0.8-1.9-1.9V13c0-1,0.8-1.9,1.9-1.9h0.3V9.9c0-1.2,1-2.2,2.2-2.2h5.9V6.2H9.9C8.9,6.2,8,5.3,8,4.3V1.9z"/>
</svg>
