<?xml version="1.0" encoding="utf-8"?>
<!-- Generator: $$$/GeneralStr/196=Adobe Illustrator 27.6.0, SVG Export Plug-In . SVG Version: 6.00 Build 0)  -->
<svg version="1.1" id="Capa_1" xmlns="http://www.w3.org/2000/svg" xmlns:xlink="http://www.w3.org/1999/xlink" x="0px" y="0px"
	 viewBox="0 0 25 21.4" style="enable-background:new 0 0 25 21.4;" xml:space="preserve">
<style type="text/css">
	.st0{fill:#B33333;}
</style>
<path id="heart" class="st0" d="M11,20.8l-0.1-0.1l-8.6-7.9C0.9,11.3,0,9.4,0,7.3V7.2C0,3.2,3.2,0,7.2,0c1.5,0,2.9,0.5,4.1,1.3
	c0.4,0.3,0.9,0.7,1.2,1.1c0.2-0.2,0.4-0.4,0.7-0.6c0.2-0.2,0.4-0.3,0.6-0.4l0,0C17-1,21.4-0.2,23.7,3C24.5,4.2,25,5.7,25,7.2v0.2
	c0,2-0.9,4-2.3,5.4l-8.6,7.9L14,20.8c-0.4,0.4-0.9,0.6-1.5,0.6C12,21.4,11.4,21.1,11,20.8z"/>
</svg>
