<?xml version="1.0" encoding="utf-8"?>
<!-- Generator: Adobe Illustrator 28.1.0, SVG Export Plug-In . SVG Version: 6.00 Build 0)  -->
<svg version="1.1" id="Capa_1" xmlns="http://www.w3.org/2000/svg" xmlns:xlink="http://www.w3.org/1999/xlink" x="0px" y="0px"
	 viewBox="0 0 14.8 16.9" style="enable-background:new 0 0 14.8 16.9;" xml:space="preserve">
<style type="text/css">
	.st0{fill:#B3DAE8;stroke:#3366CC;stroke-width:0.5;stroke-miterlimit:10;}
</style>
<path id="calendar-days" class="st0" d="M4.2,0c0.6,0,1.1,0.5,1.1,1.1l0,0v1.1h4.2V1.1c0-0.6,0.5-1,1.1-1s1,0.5,1,1v1.1h1.6
	c0.9,0,1.6,0.7,1.6,1.6v1.6H0V3.7c0-0.9,0.7-1.6,1.6-1.6h1.6v-1C3.2,0.5,3.6,0,4.2,0L4.2,0z M0,6.3h14.8v9c0,0.9-0.7,1.6-1.6,1.6
	H1.6c-0.9,0-1.6-0.7-1.6-1.6V6.3z M2.1,9v1c0,0.3,0.2,0.5,0.5,0.5h1.1c0.3,0,0.5-0.2,0.5-0.5V9c0-0.3-0.2-0.5-0.5-0.5H2.6
	C2.3,8.4,2.1,8.7,2.1,9z M6.3,9v1c0,0.3,0.2,0.5,0.5,0.5h1.1c0.3,0,0.5-0.2,0.5-0.5V9c0-0.3-0.2-0.5-0.5-0.5h-1
	C6.6,8.4,6.3,8.7,6.3,9z M11.1,8.4c-0.3,0-0.5,0.2-0.5,0.5V10c0,0.3,0.2,0.5,0.5,0.5h1.1c0.3,0,0.5-0.2,0.5-0.5V9
	c0-0.3-0.2-0.5-0.5-0.5h-1.1V8.4z M2.1,13.2v1.1c0,0.3,0.2,0.5,0.5,0.5h1.1c0.3,0,0.5-0.2,0.5-0.5v-1.1c0-0.3-0.2-0.5-0.5-0.5H2.6
	C2.3,12.7,2.1,12.9,2.1,13.2z M6.9,12.7c-0.3,0-0.5,0.2-0.5,0.5v1.1c0,0.3,0.2,0.5,0.5,0.5H8c0.3,0,0.5-0.2,0.5-0.5v-1.1
	c0-0.3-0.2-0.5-0.5-0.5H6.9z M10.6,13.2v1.1c0,0.3,0.2,0.5,0.5,0.5h1.1c0.3,0,0.5-0.2,0.5-0.5v-1.1c0-0.3-0.2-0.5-0.5-0.5h-1.1
	C10.8,12.7,10.6,12.9,10.6,13.2L10.6,13.2z"/>
</svg>
