<?xml version="1.0" encoding="UTF-8"?>
<svg id="Capa_2" data-name="Capa 2" xmlns="http://www.w3.org/2000/svg" viewBox="0 0 35 35">
  <defs>
    <style>
      .cls-1 {
        fill: #3c63ad;
      }

      .cls-1, .cls-2 {
        stroke-width: 0px;
      }

      .cls-2 {
        fill: #fff;
      }
    </style>
  </defs>
  <g id="Capa_1-2" data-name="Capa 1">
    <g>
      <circle id="Ellipse_88" data-name="Ellipse 88" class="cls-1" cx="17.5" cy="17.5" r="17.5"/>
      <path id="lightbulb" class="cls-2" d="m21.23,23.08c.46-1.27,1.14-2.46,2-3.51h0c.21-.29.42-.58.63-.87,2.26-3.25,1.45-7.72-1.8-9.98-3.25-2.26-7.72-1.45-9.98,1.8-1.71,2.46-1.71,5.72,0,8.18.2.29.42.58.63.87h0c.86,1.05,1.54,2.24,2,3.51h6.53Zm-3.26,5.22c1.8,0,3.26-1.46,3.26-3.26h0v-.65h-6.52v.65c0,1.8,1.46,3.26,3.26,3.26h0Zm-3.26-13.69c-.03.36-.34.63-.7.6-.32-.03-.57-.28-.6-.6,0-2.52,2.04-4.56,4.56-4.56,0,0,0,0,0,0,.36-.03.67.24.7.6.03.36-.24.67-.6.7-.03,0-.07,0-.1,0-1.8,0-3.26,1.46-3.26,3.26,0,0,0,0,0,0Z"/>
    </g>
  </g>
</svg>