<?xml version="1.0" encoding="UTF-8"?>
<svg id="Capa_2" data-name="Capa 2" xmlns="http://www.w3.org/2000/svg" viewBox="0 0 34 34">
  <defs>
    <style>
      .cls-1 {
        fill: #3c63ad;
      }

      .cls-1, .cls-2 {
        stroke-width: 0px;
      }

      .cls-2 {
        fill: #fff;
      }
    </style>
  </defs>
  <g id="Capa_1-2" data-name="Capa 1">
    <g>
      <circle id="Ellipse_85" data-name="Ellipse 85" class="cls-1" cx="17" cy="17" r="17"/>
      <path id="globe" class="cls-2" d="m20.05,17c0,.68-.03,1.36-.1,2.03h-5.89c-.07-.67-.1-1.35-.1-2.03,0-.68.03-1.36.1-2.03h5.88c.07.67.11,1.35.1,2.03Zm.91-2.03h3.91c.34,1.33.34,2.73,0,4.06h-3.91c.07-.67.1-1.35.1-2.03,0-.68-.03-1.36-.1-2.03h0Zm3.57-1.02h-3.7c-.21-1.72-.81-3.37-1.76-4.81,2.47.66,4.49,2.44,5.46,4.81h0Zm-4.73,0h-5.6c.16-1.03.45-2.04.86-3.01.25-.61.61-1.16,1.06-1.63.23-.26.54-.41.88-.44.34.03.66.18.88.44.45.47.82,1.03,1.06,1.63.41.96.7,1.97.86,3.01Zm-6.63,0h-3.7c.96-2.37,2.98-4.15,5.46-4.81-.95,1.45-1.55,3.09-1.76,4.81Zm-4.04,1.01h3.91c-.14,1.35-.14,2.71,0,4.06h-3.91c-.34-1.33-.34-2.73,0-4.06Zm5.92,8.08c-.41-.96-.7-1.97-.86-3h5.6c-.16,1.03-.45,2.04-.86,3-.25.61-.61,1.16-1.06,1.63-.22.26-.54.42-.88.44-.34-.03-.66-.18-.88-.44-.45-.47-.82-1.03-1.06-1.63h0Zm-1.89-3c.2,1.72.81,3.37,1.76,4.81-2.48-.66-4.5-2.44-5.46-4.81h3.7Zm11.36,0c-.96,2.37-2.98,4.15-5.46,4.81.95-1.45,1.55-3.09,1.76-4.81h3.7Z"/>
    </g>
  </g>
</svg>