<?xml version="1.0" encoding="utf-8"?>
<!-- Generator: Adobe Illustrator 28.1.0, SVG Export Plug-In . SVG Version: 6.00 Build 0)  -->
<svg version="1.1" id="Capa_1" xmlns="http://www.w3.org/2000/svg" xmlns:xlink="http://www.w3.org/1999/xlink" x="0px" y="0px"
	 viewBox="0 0 19.4 19.1" style="enable-background:new 0 0 19.4 19.1;" xml:space="preserve">
<style type="text/css">
	.st0{fill:#3366CC;}
</style>
<path id="clock-five" class="st0" d="M9.7,19.1c5.3,0,9.6-4.2,9.7-9.5C19.3,4.2,15,0,9.7,0S0,4.2,0,9.5C0,14.9,4.4,19.1,9.7,19.1z
	 M10.6,4.5v4.8l2.3,3.4c0.3,0.4,0.2,1-0.2,1.2l0,0c-0.4,0.3-1,0.2-1.3-0.2L8.9,10C8.8,9.9,8.8,9.7,8.8,9.5v-5c0-0.5,0.4-0.9,0.9-0.9
	S10.6,4,10.6,4.5L10.6,4.5z"/>
</svg>
