<?xml version="1.0" encoding="utf-8"?>
<!-- Generator: Adobe Illustrator 28.1.0, SVG Export Plug-In . SVG Version: 6.00 Build 0)  -->
<svg version="1.1" id="Capa_1" xmlns="http://www.w3.org/2000/svg" xmlns:xlink="http://www.w3.org/1999/xlink" x="0px" y="0px"
	 viewBox="0 0 35 35" style="enable-background:new 0 0 35 35;" xml:space="preserve">
<style type="text/css">
	.st0{fill-rule:evenodd;clip-rule:evenodd;fill:#3C63AD;}
</style>
<path class="st0" d="M29.9,5.1C23-1.7,12-1.7,5.1,5.1C-1.7,12-1.7,23,5.1,29.9s17.9,6.8,24.7,0S36.7,12,29.9,5.1L29.9,5.1z
	 M15.1,13.2h-1.4l1.4-1.4V13.2L15.1,13.2z M11.6,13.4l3.7-3.7l0.5-0.2h6.3c0.8,0,1.5,0.6,1.5,1.5v13.1c0,0.4-0.2,0.8-0.5,1l0,0
	c-0.2,0.2-0.6,0.5-1,0.5h-9.3c-0.8,0-1.5-0.6-1.5-1.5V13.6L11.6,13.4L11.6,13.4z M16.5,10.9h5.7v13.2l0,0h-9.4v-9.6h3
	c0.4,0,0.7-0.3,0.7-0.7C16.5,13.8,16.5,10.9,16.5,10.9z"/>
</svg>
