<?xml version="1.0" encoding="utf-8"?>
<!-- Generator: Adobe Illustrator 28.1.0, SVG Export Plug-In . SVG Version: 6.00 Build 0)  -->
<svg version="1.1" id="Capa_1" xmlns="http://www.w3.org/2000/svg" xmlns:xlink="http://www.w3.org/1999/xlink" x="0px" y="0px"
	 viewBox="0 0 16.6 18.9" style="enable-background:new 0 0 16.6 18.9;" xml:space="preserve">
<style type="text/css">
	.st0{fill:#3366CC;}
</style>
<path id="book-blank" class="st0" d="M3.6,0C1.6,0,0,1.6,0,3.6v11.8c0,2,1.6,3.6,3.6,3.6h11.8c0.7,0,1.2-0.6,1.1-1.2
	c0-0.6-0.5-1.1-1.1-1.1v-2.4c0.7,0,1.2-0.5,1.2-1.2l0,0V1.2C16.6,0.5,16,0,15.4,0l0,0H3.6z M3.6,14.2H13v2.4H3.6
	c-0.7,0-1.2-0.5-1.2-1.1C2.3,14.8,2.8,14.2,3.6,14.2C3.5,14.2,3.5,14.2,3.6,14.2z"/>
</svg>
