<?xml version="1.0" encoding="utf-8"?>
<!-- Generator: Adobe Illustrator 28.1.0, SVG Export Plug-In . SVG Version: 6.00 Build 0)  -->
<svg version="1.1" id="Capa_1" xmlns="http://www.w3.org/2000/svg" xmlns:xlink="http://www.w3.org/1999/xlink" x="0px" y="0px"
	 viewBox="0 0 20 17.8" style="enable-background:new 0 0 20 17.8;" xml:space="preserve">
<style type="text/css">
	.st0{fill:#B3DAE8;stroke:#3366CC;stroke-width:0.5;stroke-miterlimit:10;}
</style>
<path id="door-open" class="st0" d="M11.1,1.1c0-0.3-0.2-0.7-0.4-0.9C10.4,0,10.1,0,9.7,0L3.5,1.6C2.7,1.8,2.2,2.4,2.2,3.2v12.3H1.1
	C0.5,15.5,0,16,0,16.6s0.5,1.1,1.1,1.1h10V1.1z M8.9,8.9c0,0.6-0.4,1.1-0.8,1.1S7.2,9.5,7.2,8.9S7.6,7.8,8,7.8
	C8.5,7.8,8.9,8.3,8.9,8.9z M12.2,4.4h3.3v12.2c0,0.6,0.5,1.1,1.1,1.1l0,0h2.2c0.6,0,1.1-0.5,1.1-1.1s-0.5-1.1-1.1-1.1l0,0h-1.1V4.4
	c0-1.2-1-2.2-2.2-2.2h-3.3C12.2,2.2,12.2,4.4,12.2,4.4z"/>
</svg>
