<?xml version="1.0" encoding="utf-8"?>
<!-- Generator: Adobe Illustrator 28.1.0, SVG Export Plug-In . SVG Version: 6.00 Build 0)  -->
<svg version="1.1" id="Capa_1" xmlns="http://www.w3.org/2000/svg" xmlns:xlink="http://www.w3.org/1999/xlink" x="0px" y="0px"
	 viewBox="0 0 35 35" style="enable-background:new 0 0 35 35;" xml:space="preserve">
<style type="text/css">
	.st0{fill-rule:evenodd;clip-rule:evenodd;fill:#3C63AD;}
	.st1{fill:#FFFFFF;}
</style>
<path class="st0" d="M29.9,5.1C23-1.7,12-1.7,5.1,5.1C-1.7,12-1.7,23,5.1,29.9s17.9,6.8,24.7,0S36.8,12,29.9,5.1L29.9,5.1z"/>
<g>
	<path class="st1" d="M17,21c0.1,0.1,0.3,0.2,0.5,0.2s0.4-0.1,0.5-0.2l3-3c0.3-0.3,0.3-0.8,0-1.1c-0.3-0.3-0.8-0.3-1.1,0l-1.7,1.7
		V9.5c0-0.4-0.3-0.8-0.8-0.8c-0.4,0-0.8,0.3-0.8,0.8v9.2L15,17c-0.3-0.3-0.8-0.3-1.1,0s-0.3,0.8,0,1.1L17,21L17,21z"/>
	<path class="st1" d="M25.5,19.8c-0.4,0-0.8,0.3-0.8,0.8v3c0,0.7-0.6,1.2-1.2,1.2h-12c-0.7,0-1.2-0.6-1.2-1.2v-3
		c0-0.4-0.3-0.8-0.8-0.8s-0.8,0.3-0.8,0.8v3c0,1.5,1.2,2.8,2.8,2.8h12c1.5,0,2.8-1.2,2.8-2.8v-3C26.2,20.1,25.9,19.8,25.5,19.8z"/>
</g>
</svg>
