<?xml version="1.0" encoding="utf-8"?>
<!-- Generator: Adobe Illustrator 28.0.0, SVG Export Plug-In . SVG Version: 6.00 Build 0)  -->
<svg version="1.1" id="Capa_1" xmlns="http://www.w3.org/2000/svg" xmlns:xlink="http://www.w3.org/1999/xlink" x="0px" y="0px"
	 viewBox="0 0 15 15" style="enable-background:new 0 0 15 15;" xml:space="preserve">
<style type="text/css">
	.st0{fill:#555555;}
</style>
<path class="st0" d="M11.5,4.7c-0.3-0.2-0.6-0.2-0.9,0c-0.2,0.2-0.3,0.3-0.5,0.5C9.8,5.5,9.4,5.9,9,6.3C8.6,6.7,8.2,7.2,7.7,7.6
	C7.3,8,6.9,8.4,6.5,8.8C6.5,8.9,6.4,8.9,6.3,9C6.2,8.9,6,8.7,5.9,8.6C5.5,8.2,5.1,7.8,4.7,7.4C4.6,7.3,4.5,7.2,4.4,7.1
	c-0.2-0.2-0.7-0.3-0.9,0C3.2,7.3,3.2,7.7,3.5,8C4,8.5,4.5,9,5,9.5c0.2,0.2,0.5,0.5,0.7,0.7c0,0,0,0,0.1,0.1c0.3,0.3,0.8,0.3,1.1,0
	c0,0,0.1-0.1,0.1-0.1c0.5-0.5,0.9-0.9,1.4-1.4c0.7-0.7,1.3-1.3,2-2c0.4-0.4,0.8-0.8,1.2-1.2c0,0,0,0,0,0C11.8,5.4,11.8,4.9,11.5,4.7
	z"/>
<path class="st0" d="M15,7.5c0-0.8-0.1-1.5-0.4-2.2c-0.2-0.7-0.6-1.4-1-2c-0.2-0.3-0.5-0.6-0.8-0.9C12.6,2,12.3,1.7,12,1.5
	c-0.6-0.5-1.3-0.8-2-1.1C9.3,0.2,8.5,0,7.8,0C7,0,6.2,0.1,5.5,0.3C4.7,0.5,4,0.8,3.4,1.2C2.8,1.6,2.2,2.1,1.8,2.7
	C1.5,3,1.3,3.3,1.1,3.7C0.9,4,0.7,4.4,0.5,4.7C0.2,5.4,0.1,6.2,0,7C0,7.7,0,8.5,0.2,9.3c0.2,0.7,0.5,1.4,0.9,2.1
	c0.4,0.6,0.9,1.2,1.4,1.7c0.6,0.5,1.2,0.9,1.9,1.2c0.4,0.2,0.7,0.3,1.1,0.4c0.4,0.1,0.8,0.2,1.2,0.2C7.5,15,8.3,15,9,14.8
	c0.7-0.1,1.5-0.4,2.1-0.8c0.6-0.4,1.2-0.8,1.8-1.4c0.5-0.5,1-1.2,1.3-1.8c0.3-0.7,0.6-1.4,0.7-2.2C15,8.3,15,7.9,15,7.5
	C15,7.5,15,7.5,15,7.5z M13.7,6.7C13.7,6.6,13.7,6.6,13.7,6.7C13.7,6.6,13.7,6.6,13.7,6.7z M13.7,8.3c-0.1,0.5-0.2,1.1-0.4,1.6
	c-0.2,0.5-0.5,1-0.8,1.4c-0.3,0.4-0.7,0.8-1.1,1.1c-0.4,0.3-0.9,0.6-1.4,0.8c-0.5,0.2-1,0.3-1.6,0.4c-0.5,0.1-1.1,0.1-1.7,0
	c-0.5-0.1-1.1-0.2-1.6-0.4c-0.5-0.2-1-0.5-1.4-0.8c-0.4-0.3-0.8-0.7-1.1-1.1C2.2,10.9,2,10.4,1.7,9.9c-0.2-0.5-0.3-1-0.4-1.6
	c-0.1-0.5-0.1-1.1,0-1.7c0.1-0.5,0.2-1.1,0.4-1.6c0.2-0.5,0.5-1,0.8-1.4c0.3-0.4,0.7-0.8,1.1-1.1C4.1,2.2,4.6,2,5.1,1.7
	c0.5-0.2,1-0.3,1.6-0.4c0.5-0.1,1.1-0.1,1.7,0c0.5,0.1,1.1,0.2,1.6,0.4c0.5,0.2,1,0.5,1.4,0.8c0.4,0.3,0.8,0.7,1.1,1.1
	c0.3,0.4,0.6,0.9,0.8,1.4c0.2,0.5,0.3,1,0.4,1.6c0,0.3,0,0.5,0,0.8C13.7,7.8,13.7,8,13.7,8.3z"/>
</svg>
