<?xml version="1.0" encoding="utf-8"?>
<!-- Generator: $$$/GeneralStr/196=Adobe Illustrator 27.6.0, SVG Export Plug-In . SVG Version: 6.00 Build 0)  -->
<svg version="1.1" id="Capa_1" xmlns="http://www.w3.org/2000/svg" xmlns:xlink="http://www.w3.org/1999/xlink" x="0px" y="0px"
	 viewBox="0 0 35 35" style="enable-background:new 0 0 35 35;" xml:space="preserve">
<style type="text/css">
	.st0{fill:#3366CC;}
	.st1{fill:#FFFFFF;}
</style>
<circle class="st0" cx="17.5" cy="17.5" r="17.5"/>
<path id="umbrella-beach" class="st1" d="M19.4,16.9l-1.9-0.7l-2.3,6.4H9.3c-0.6,0-1,0.4-1.1,1c0,0.6,0.4,1,1,1.1c0,0,0,0,0.1,0
	h16.5c0.6,0,1-0.4,1.1-1c0-0.6-0.4-1-1-1.1c0,0,0,0-0.1,0h-8.4L19.4,16.9L19.4,16.9z M23.3,16.9l-0.1,0.3l2.2,0.8
	c0.5,0.2,1,0,1.2-0.5c0-0.1,0.1-0.2,0.1-0.3c0.2-2.5-0.8-5-2.6-6.7c0.1,0.3,0.1,0.5,0.1,0.8l0,0.2C24.2,13.4,23.9,15.2,23.3,16.9
	L23.3,16.9z M23.1,11.4c0-1.1-0.7-2.1-1.8-2.5c0,0-0.1,0-0.1,0c-1.1-0.4-2.2-0.1-3,0.8l-0.1,0.1c-1.1,1.3-2,2.7-2.6,4.3l-0.1,0.3
	l6.8,2.5l0.1-0.3c0.6-1.6,0.9-3.3,0.8-5L23.1,11.4L23.1,11.4z M11.7,11.8c-0.3,0.4-0.2,1,0.3,1.3c0.1,0,0.2,0.1,0.2,0.1l2.3,0.8
	l0.1-0.3c0.6-1.7,1.6-3.3,2.8-4.7l0.1-0.1c0.2-0.2,0.4-0.4,0.7-0.6C15.6,8.4,13.2,9.7,11.7,11.8L11.7,11.8z"/>
</svg>
