<?xml version="1.0" encoding="UTF-8"?>
<svg id="Capa_2" data-name="Capa 2" xmlns="http://www.w3.org/2000/svg" viewBox="0 0 34 34">
  <defs>
    <style>
      .cls-1 {
        fill: #3c63ad;
      }

      .cls-1, .cls-2 {
        stroke-width: 0px;
      }

      .cls-2 {
        fill: #fff;
      }
    </style>
  </defs>
  <g id="Capa_1-2" data-name="Capa 1">
    <g>
      <circle id="Ellipse_103" data-name="Ellipse 103" class="cls-1" cx="17" cy="17" r="17"/>
      <path id="helmet-safety" class="cls-2" d="m15.96,9.73c-.57,0-1.04.46-1.04,1.04,0,0,0,0,0,0v3.31c0,.18-.15.33-.33.33-.12,0-.23-.06-.29-.17l-1.56-2.72c-2.49,1.22-4.06,3.75-4.06,6.53v2.08h16.63v-2.16c-.03-2.74-1.6-5.24-4.06-6.45l-1.56,2.72c-.09.16-.29.21-.45.13-.1-.06-.17-.17-.17-.29v-3.31c0-.57-.46-1.04-1.04-1.04h-2.08Zm-7.77,11.43c-.3,0-.54.24-.54.54,0,0,0,0,0,0,0,.15.07.3.19.39.7.52,3.44,2.19,9.16,2.19s8.46-1.67,9.16-2.19c.12-.09.19-.23.19-.39,0-.3-.24-.54-.54-.54H8.19Z"/>
    </g>
  </g>
</svg>