<?xml version="1.0" encoding="utf-8"?>
<!-- Generator: Adobe Illustrator 28.1.0, SVG Export Plug-In . SVG Version: 6.00 Build 0)  -->
<svg version="1.1" id="Capa_1" xmlns="http://www.w3.org/2000/svg" xmlns:xlink="http://www.w3.org/1999/xlink" x="0px" y="0px"
	 viewBox="0 0 14.2 18.9" style="enable-background:new 0 0 14.2 18.9;" xml:space="preserve">
<style type="text/css">
	.st0{fill:#B3DAE8;stroke:#3366CC;stroke-width:0.5;stroke-miterlimit:10;}
</style>
<path id="file-invoice" class="st0" d="M2.4,0C1.1,0,0,1.1,0,2.4v14.2C0,17.9,1.1,19,2.4,19h9.5c1.3,0,2.4-1.1,2.4-2.4V5.9H9.5
	c-0.7,0-1.2-0.5-1.2-1.2l0,0V0H2.4z M9.5,0v4.7h4.7L9.5,0z M3,2.4h2.4C5.7,2.4,6,2.7,6,3S5.7,3.6,5.4,3.6l0,0H3
	C2.6,3.6,2.4,3.3,2.4,3S2.6,2.4,3,2.4L3,2.4z M3,4.7h2.4C5.7,4.7,6,5,6,5.3S5.7,5.9,5.4,5.9l0,0H3c-0.3,0-0.6-0.3-0.6-0.6
	S2.6,4.7,3,4.7L3,4.7z M3.6,8.3h7.1c0.7,0,1.2,0.5,1.2,1.2l0,0v2.4c0,0.7-0.5,1.2-1.2,1.2l0,0H3.6c-0.7,0-1.2-0.5-1.2-1.2l0,0V9.5
	C2.4,8.8,2.9,8.3,3.6,8.3C3.5,8.3,3.5,8.3,3.6,8.3L3.6,8.3z M3.6,9.5v2.4h7.1V9.5H3.6z M8.9,15.4h2.4c0.3,0,0.6,0.3,0.6,0.6
	c0,0.3-0.3,0.6-0.6,0.6H8.9c-0.3,0-0.6-0.3-0.6-0.6C8.3,15.7,8.6,15.4,8.9,15.4z"/>
</svg>
