<?xml version="1.0" encoding="utf-8"?>
<!-- Generator: Adobe Illustrator 28.0.0, SVG Export Plug-In . SVG Version: 6.00 Build 0)  -->
<svg version="1.1" id="Capa_1" xmlns="http://www.w3.org/2000/svg" xmlns:xlink="http://www.w3.org/1999/xlink" x="0px" y="0px"
	 viewBox="0 0 30 23.3" style="enable-background:new 0 0 30 23.3;" xml:space="preserve">
<style type="text/css">
	.st0{fill:#A7CA57;}
</style>
<path class="st0" d="M29.8,12.4l-5,10c-0.3,0.6-0.9,0.9-1.5,0.9h-20C1.5,23.3,0,21.8,0,20V3.3C0,1.5,1.5,0,3.3,0h6.1
	c0.9,0,1.7,0.4,2.4,1l2.6,2.4h7.3c1.8,0,3.3,1.5,3.3,3.3v1.7h-2.5V6.7c0-0.5-0.4-0.8-0.8-0.8h-8.3L10,2.7C9.9,2.6,9.7,2.5,9.5,2.5
	H3.3c-0.5,0-0.8,0.4-0.8,0.8v15l3.7-7.4C6.5,10.4,7.1,10,7.7,10h20.6C29.6,10,30.4,11.3,29.8,12.4z"/>
</svg>
