<?xml version="1.0" encoding="UTF-8"?><svg id="Capa_2" xmlns="http://www.w3.org/2000/svg" viewBox="0 0 17.7 14.2"><defs><style>.cls-1{fill:#fff;}</style></defs><g id="Capa_1-2"><path id="list-ul" class="cls-1" d="m1.2,0C.5,0,0,.5,0,1.2s.5,1.2,1.2,1.2,1.2-.5,1.2-1.2S1.8,0,1.2,0h0Zm4.4.3c-.5,0-.9.4-.9.9s.4.9.9.9h11.2c.5,0,.9-.4.9-.9s-.4-.9-.9-.9c0,0-11.2,0-11.2,0Zm0,5.9c-.5,0-.9.4-.9.9s.4.9.9.9h11.2c.5,0,.9-.4.9-.9s-.4-.9-.9-.9H5.6Zm0,5.9c-.5,0-.9.4-.9.9s.4.9.9.9h11.2c.5,0,.9-.4.9-.9s-.4-.9-.9-.9H5.6Zm-3.2-5c0-.7-.5-1.2-1.2-1.2s-1.2.5-1.2,1.2.5,1.2,1.2,1.2c.6,0,1.2-.6,1.2-1.2h0Zm-1.2,4.7c-.7,0-1.2.5-1.2,1.2s.5,1.2,1.2,1.2,1.2-.5,1.2-1.2-.6-1.2-1.2-1.2h0Z"/></g></svg>