<?xml version="1.0" encoding="utf-8"?>
<!-- Generator: Adobe Illustrator 28.1.0, SVG Export Plug-In . SVG Version: 6.00 Build 0)  -->
<svg version="1.1" id="Capa_1" xmlns="http://www.w3.org/2000/svg" xmlns:xlink="http://www.w3.org/1999/xlink" x="0px" y="0px"
	 viewBox="0 0 19.3 19.3" style="enable-background:new 0 0 19.3 19.3;" xml:space="preserve">
<style type="text/css">
	.st0{fill:#3366CC;}
</style>
<path id="book-open-reader" class="st0" d="M6,3.6C6,1.6,7.6,0,9.6,0s3.6,1.6,3.6,3.6s-1.6,3.6-3.6,3.6S6,5.6,6,3.6L6,3.6z M9,9.3
	v9.9l-1.8-0.9c-0.8-0.4-1.6-0.6-2.5-0.7l-3.6-0.4c-0.6,0-1.1-0.5-1.1-1.1V8.4c0-0.7,0.5-1.2,1.2-1.2h1.1C4.7,7.2,7.1,8,9,9.3z
	 M10.2,19.3v-10c2-1.4,4.3-2.1,6.7-2.1H18c0.7,0,1.2,0.5,1.2,1.2l0,0V16c0,0.6-0.5,1.1-1.1,1.2l-3.6,0.4c-0.9,0.1-1.7,0.3-2.5,0.7
	L10.2,19.3z"/>
</svg>
