<?xml version="1.0" encoding="utf-8"?>
<!-- Generator: $$$/GeneralStr/196=Adobe Illustrator 27.6.0, SVG Export Plug-In . SVG Version: 6.00 Build 0)  -->
<svg version="1.1" id="Capa_1" xmlns="http://www.w3.org/2000/svg" xmlns:xlink="http://www.w3.org/1999/xlink" x="0px" y="0px"
	 viewBox="0 0 35 35" style="enable-background:new 0 0 35 35;" xml:space="preserve">
<style type="text/css">
	.st0{fill:#3366CC;}
	.st1{fill:#FFFFFF;}
</style>
<circle class="st0" cx="17.5" cy="17.5" r="17.5"/>
<path id="clock-five" class="st1" d="M17.5,27c5.3,0,9.6-4.2,9.7-9.5c0-5.3-4.4-9.6-9.7-9.5c-5.3,0-9.6,4.2-9.7,9.5
	C7.9,22.8,12.2,27.1,17.5,27z M18.4,12.4v4.8l2.3,3.4c0.3,0.4,0.2,1-0.2,1.2c0,0,0,0,0,0c-0.4,0.3-1,0.2-1.3-0.2L16.7,18
	c-0.1-0.1-0.2-0.3-0.2-0.5v-5.1c0-0.5,0.4-0.9,0.9-0.9S18.4,11.9,18.4,12.4L18.4,12.4z"/>
</svg>
