<?xml version="1.0" encoding="utf-8"?>
<!-- Generator: Adobe Illustrator 28.1.0, SVG Export Plug-In . SVG Version: 6.00 Build 0)  -->
<svg version="1.1" id="Capa_1" xmlns="http://www.w3.org/2000/svg" xmlns:xlink="http://www.w3.org/1999/xlink" x="0px" y="0px"
	 viewBox="0 0 18.5 16.3" style="enable-background:new 0 0 18.5 16.3;" xml:space="preserve">
<style type="text/css">
	.st0{fill:#3366CC;}
</style>
<path id="umbrella-beach" class="st0" d="M11.1,8.6L9.2,7.9l-2.3,6.4H1c-0.6,0-1,0.4-1.1,1c0,0.6,0.4,1,1,1.1c0,0,0,0,0.1,0h16.5
	c0.6,0,1-0.4,1.1-1c0-0.6-0.4-1-1-1.1c0,0,0,0-0.1,0H9.1L11.1,8.6L11.1,8.6z M15,8.6l-0.1,0.3l2.2,0.8c0.5,0.2,1,0,1.2-0.5
	c0-0.1,0.1-0.2,0.1-0.3c0.2-2.5-0.8-5-2.6-6.7c0.1,0.3,0.1,0.5,0.1,0.8v0.2C16,5,15.7,6.9,15,8.6L15,8.6z M14.9,3
	c0-1.1-0.7-2.1-1.8-2.5H13c-1.1-0.4-2.2-0.1-3,0.8L9.9,1.4c-1.1,1.3-2,2.7-2.6,4.3L7.2,6.1L14,8.5l0.1-0.3c0.6-1.6,0.9-3.3,0.8-5
	L14.9,3L14.9,3z M3.4,3.5c-0.3,0.4-0.2,1,0.3,1.3c0.1,0,0.2,0.1,0.2,0.1l2.3,0.8l0.1-0.3C7,3.7,7.9,2.1,9.1,0.7l0.1-0.1
	C9.5,0.4,9.7,0.2,9.9,0C7.3,0.1,4.9,1.4,3.4,3.5L3.4,3.5z"/>
</svg>
