<?xml version="1.0" encoding="UTF-8"?><svg id="Capa_2" xmlns="http://www.w3.org/2000/svg" viewBox="0 0 26.22 29.96"><g id="Capa_1-2"><path id="bell-4" d="m13.11,0c-1.03,0-1.87.84-1.87,1.87,0,0,0,0,0,0v1.13c-4.36.89-7.49,4.72-7.49,9.17v1.1c0,2.75-1.01,5.41-2.84,7.47l-.43.49c-.69.77-.62,1.96.15,2.64.34.31.79.47,1.25.47h22.47c1.03,0,1.87-.84,1.87-1.87,0-.46-.17-.9-.47-1.25l-.43-.49c-1.83-2.06-2.84-4.71-2.84-7.47v-1.1c0-4.45-3.13-8.28-7.49-9.17v-1.13C14.98.84,14.15,0,13.11,0c0,0,0,0,0,0Zm2.65,28.86c.7-.7,1.1-1.66,1.09-2.65h-7.49c0,2.07,1.68,3.75,3.75,3.75,1,0,1.95-.4,2.65-1.1h0Z"/></g></svg>