<?xml version="1.0" encoding="utf-8"?>
<!-- Generator: $$$/GeneralStr/196=Adobe Illustrator 27.6.0, SVG Export Plug-In . SVG Version: 6.00 Build 0)  -->
<svg version="1.1" id="Capa_1" xmlns="http://www.w3.org/2000/svg" xmlns:xlink="http://www.w3.org/1999/xlink" x="0px" y="0px"
	 viewBox="0 0 35 35" style="enable-background:new 0 0 35 35;" xml:space="preserve">
<style type="text/css">
	.st0{fill:#3366CC;}
	.st1{fill:#FFFFFF;}
</style>
<circle class="st0" cx="17.5" cy="17.5" r="17.5"/>
<path id="graduation-cap" class="st1" d="M17.5,9.8c-0.3,0-0.6,0-0.8,0.1L7,13.4c-0.4,0.2-0.7,0.6-0.5,1.1C6.6,14.7,6.8,14.9,7,15
	l2,0.7c-0.6,0.9-0.9,2-0.9,3.1v1c0,1-0.3,1.9-0.8,2.8c-0.2,0.5-0.5,0.9-0.8,1.3c-0.2,0.2-0.1,0.6,0.1,0.8c0.1,0,0.1,0.1,0.2,0.1
	l2.2,0.6c0.1,0,0.3,0,0.4-0.1c0.1-0.1,0.2-0.2,0.2-0.4C10,23.5,10,22.3,9.7,21c-0.1-0.5-0.3-1-0.5-1.5v-0.9c0-1,0.3-2,1-2.8
	c0.5-0.5,1-1,1.7-1.2l5.4-2.1c0.3-0.1,0.6,0,0.7,0.3s0,0.6-0.3,0.7c0,0,0,0-0.1,0l-5.4,2.1c-0.4,0.2-0.8,0.4-1.1,0.7l5.5,2
	c0.5,0.2,1.1,0.2,1.6,0L28,15c0.4-0.2,0.7-0.6,0.5-1.1c-0.1-0.2-0.3-0.4-0.5-0.5l-9.7-3.5C18.1,9.8,17.8,9.8,17.5,9.8z M10.9,22.7
	c0,1.2,3,2.5,6.6,2.5s6.6-1.3,6.6-2.5l-0.5-5l-4.9,1.8c-0.8,0.3-1.6,0.3-2.4,0l-4.9-1.8L10.9,22.7z"/>
</svg>
