<?xml version="1.0" encoding="UTF-8"?>
<svg id="Capa_2" data-name="Capa 2" xmlns="http://www.w3.org/2000/svg" viewBox="0 0 1532.82 1760.77">
  <defs>
    <style>
      .cls-1, .cls-2, .cls-3 {
        stroke-width: 0px;
      }

      .cls-2 {
        fill: #a7c755;
      }

      .cls-3 {
        fill: #0196d9;
      }
    </style>
  </defs>
  <g id="Capa_1-2" data-name="Capa 1">
    <g>
      <g>
        <path class="cls-3" d="M757.13.68c.96-.22,1.91-.62,2.87-.63,25.78-.3,51.47.73,77.13,3.73,41.68,4.89,82.09,14.76,121.28,29.57,33.61,12.7,65.45,28.98,95.62,48.59,28.11,18.28,54.09,39.14,78.14,62.47,28.9,28.04,54.11,59.1,75.76,93.02,24.28,38.04,43.34,78.57,57.52,121.42,9.58,28.96,16.56,58.56,21.32,88.64,5.84,36.87,7.73,74.08,6.06,111.33-2.5,55.83-13.37,110.13-33,162.52-20.13,53.72-48.17,103-84.11,147.77-37.5,46.71-81.58,86.1-132.2,118.03-49.3,31.1-102.35,53.57-159.09,67.18-23.69,5.68-47.64,9.75-71.9,12.2-11.26,1.13-22.55,1.48-33.81,2.44-1.51.13-2.99.11-4.36-.67-5.26-22.56-8.27-45.42-8.96-68.56-.48-16.12-.7-32.26.59-48.37.84-9.92,1.3-19.89,2.59-29.75,3.95-30.07,9.45-59.83,18.76-88.78,7.13-22.17,15.38-43.92,29.21-62.88,8.85-12.12,17.26-24.42,23.61-38.02,16.16-34.61,21.77-71.57,23.01-109.26,1.02-31.1.15-62.22-.89-93.33-.01-.38-.41-.74-.85-1.51-29.08,25.96-57.96,51.74-87.16,77.81,0-14.63,0-28.26,0-41.89,0-36.3.07-72.61-.1-108.91-.02-4.16,1.14-7.13,4-10.09,43.63-45.21,87.21-90.49,130.66-135.87,3.1-3.24,4.32-.94,6.12.86,50.63,50.62,101.23,101.26,151.92,151.83,2.43,2.43,3.38,4.84,3.37,8.27-.11,47.46-.08,94.92-.08,142.38,0,1.26,0,2.51,0,4.78-31.34-30.51-61.93-60.3-93.36-90.89.63,14.37,1.16,27.24,1.78,40.1,1.24,25.79,1.19,51.59.16,77.36-1.13,28.38-3.47,56.65-10.47,84.31-3.93,15.53-9.01,30.59-19.84,42.94-13.96,15.93-26.34,32.99-36.69,51.47-18.3,32.64-29.84,67.19-29.5,105.1.04,4.08.39,5.67,5.13,4.1,31.96-10.56,62.33-24.52,90.88-42.32,35.63-22.21,67.2-49.15,94.88-80.81,30.94-35.39,55.25-74.8,72.68-118.32,21.66-54.1,31.63-110.39,29.66-168.77-1.17-34.83-6.03-69.03-15.31-102.62-19.56-70.8-54.89-132.46-106.91-184.41-47.32-47.25-103.08-80.5-167.11-99.75-28.02-8.42-56.66-13.48-85.85-15.78-11.65-.92-23.29-.23-34.91-1.03,1.01-39.27.62-78.44-8.26-117.01Z"/>
        <path class="cls-2" d="M757.13.68c8.88,38.57,9.27,77.74,8.26,117.01-.28,2.14-.67,4.26-.81,6.41-2.64,40.26-9.61,79.73-22.08,118.14-6.64,20.44-14.42,40.53-27.61,57.7-17.49,22.77-29.49,47.95-36.49,75.68-6.96,27.58-9.47,55.69-9.65,83.99-.17,25.8.53,51.6.88,77.4.02,1.24-.65,2.94,1,3.51,1.84.64,3.07-.89,4.27-1.99,22.37-20.55,44.7-41.14,67.11-61.64,4.81-4.4,9.42-9.08,15.44-13.14,0,2.2,0,3.67,0,5.14,0,48.13-.07,96.27.08,144.4.01,4.23-1.39,7.37-4.12,10.22-14.25,14.88-28.52,29.75-42.78,44.61-16.09,16.76-32.22,33.49-48.26,50.29-12.85,13.45-25.64,26.96-38.34,40.55-2.32,2.48-3.57,2.71-6.15.02-10.15-10.54-20.65-20.73-31.01-31.07-19.53-19.49-39.08-38.98-58.58-58.5-20.92-20.94-41.77-41.94-62.71-62.86-2.16-2.15-3.03-4.41-3.02-7.48.09-46.97.05-93.94.1-140.9,0-1.35-.7-2.97,1.89-5.12,4.77,5.05,9.19,10.44,14.14,15.29,24.68,24.19,49.49,48.24,74.26,72.35.78.76,1.25,2.3,2.71,1.52,1.3-.7.61-2.03.54-3.15-.8-12.94-1.97-25.88-2.27-38.83-.64-28.29-1.1-56.59.64-84.87,1.67-27.24,4.48-54.29,11.91-80.68,3.87-13.74,9.45-26.64,18.88-37.49,21.86-25.14,39.69-52.68,51.68-83.91,8.79-22.89,13.94-46.4,13.46-71.02-.12-6.08-.9-6.7-6.61-4.78-24.45,8.23-47.98,18.5-70.67,30.82-28.43,15.43-54.55,34.14-78.6,55.62-27.98,25-52.02,53.55-72.31,85.14-20.74,32.29-36.66,66.87-47.84,103.59-11.93,39.21-17.88,79.37-17.92,120.32-.05,44.5,6.29,88.06,19.87,130.58,12.72,39.84,30.84,76.92,54.51,111.37,23.41,34.08,51.61,63.71,83.86,89.38,27.12,21.59,56.73,39.29,88.58,53.12,32.13,13.95,65.39,23.89,100.07,29.16,20.77,3.16,41.56,5.26,62.58,4.74-1.29,16.11-1.07,32.25-.59,48.37.68,23.14,3.7,46,8.96,68.56-25.49.73-50.86-.66-76.17-3.81-26.6-3.31-52.79-8.53-78.54-15.94-30.84-8.87-60.66-20.27-89.37-34.73-26.9-13.55-52.48-29.15-76.65-47.09-33.77-25.07-63.93-53.94-90.82-86.28-26.97-32.45-49.72-67.65-68.17-105.53-15.21-31.24-27.24-63.72-36.29-97.37-8.79-32.7-14.35-65.9-17.18-99.52-2.28-27.02-2.36-54.17-.26-81.27,2.01-25.87,5.58-51.46,11.13-76.85,3.65-16.71,7.9-33.25,13.14-49.47,8.58-26.56,19.21-52.35,31.91-77.26,17.26-33.85,37.81-65.54,61.71-95.05,19.06-23.53,39.94-45.31,62.78-65.23,19.8-17.27,40.54-33.31,62.65-47.48,25.05-16.06,51.22-30.02,78.58-41.88,35.52-15.41,72.31-26.55,110.2-33.97,23.15-4.53,46.56-7.68,70.2-8.59,4.63-.18,9.25-1.06,13.9-.27Z"/>
      </g>
      <g>
        <path class="cls-2" d="M959.53,1592.66c-.16-10.73,4.42-19.87,6.31-29.59.31-1.6,1.46-3.44-.08-4.65-1.5-1.18-2.64,1.2-3.83,1.28-5.07.36-7.19,6.37-12.45,6.2-1.07-.03-1.71.96-1.81,2.06-.23,2.5-1.92,3.94-3.97,4.69-3.34,1.21-4.79,3.33-4.23,6.82.63,3.96-2.69,6.02-4.71,8.15-5.7,6.01-9.44,13.62-15.01,19.36-7.49,7.72-14.85,16.43-26.31,19.14-11.48,2.72-18.38-.79-23.37-12.01-1.63-3.68-5.56-6.3-4.79-11.09,1.44-8.91-1.47-17.64-.45-26.87.96-8.67,4.62-16.31,5.67-24.78,1.06-8.5,4.02-16.69,8.49-24.28,1.77-3,2.2-6.84,3.2-10.28,2.65-9.09,7.54-17.3,12.85-24.46,5.42-7.31,5.35-16.59,11.31-23.24,6.17-6.89,7.75-17.09,16.03-22.56.57-.38.86-1.36,1.05-2.11,1.56-6,6.55-10.1,12.78-10.44,5.95-.32,12.66,4,14.63,9.4.47,1.3.63,2.64.18,3.91-3.11,8.73-5.17,17.83-8.06,26.54-3.53,10.61-6.69,21.63-12.66,31.35-3.33,5.42-4.82,11.63-7.54,17.29-5.45,11.35-11.12,22.58-17.29,33.59-3.15,5.62-6.15,11.24-10.51,16.02-.33.36-.71.85-.72,1.29-.21,6.96-3.76,7.97-9.91,6.49-3.65-.88-3.54,3.41-3.32,5.3.79,6.52-.05,13.07,1.23,19.64,1.68,8.68,6.69,11.34,13.81,5.64,1.76-1.41,3.4-3.28,6.12-2.82,1.43.24,2.42-.69,2.25-1.99-.42-3.14,1.71-4.35,3.76-5.81,2.56-1.84,4.02-5.05,5.79-6.88,2.96-3.07,3.93-7.86,8.09-9.73,1.16-.52,1.75-1.37,2.27-2.47,4.11-8.71,10.38-15.67,17.67-21.82,8.53-7.19,17.34-14.07,25.25-21.97,3.01-3.01,6.6-3.17,10.06-1.18,4.45,2.55,9.55,5.23,8.99,11.36-.82,9.01-.66,18.15-5.17,26.66-2.86,5.4-1.63,11.85-1.27,17.87.11,1.8,4.99,1.75,7.12.19,13.05-9.52,24.29-21.08,35.21-32.79,5.24-5.62,9.84-12.22,14.46-18.6,5.61-7.76,11.3-15.56,17.3-23.07,6.19-7.74,10.04-16.72,13.24-26,.53-1.55.88-3.23.92-4.86.03-1.5-1.38-3.04-2.52-1.92-3.51,3.44-9.78,1.03-12.39,6.26-.83,1.65-3.09.66-4.67,1.03-6.63,1.57-12.85,4.02-19.08,6.85-9.31,4.24-19.09,7.48-28.76,10.86-5.15,1.8-9.72,4.24-13.11,8.57-1.93,2.46-3.32,1.82-5.06-.32-5.32-6.52-4.62-13.88,2.52-18.95,4.02-2.85,5.65-4.76.93-8.61-3.22-2.62-3.3-7.16-3.33-11.09-.04-5,4.78-5.2,7.91-7.04,2.59-1.52,4.19.03,6.12,1.51,4.62,3.55,5.77,8.18,4.9,13.64-.61,3.85.67,3.9,4.07,2.72,8.08-2.81,15.57-7.1,23.95-9.2,4.28-1.07,8.19-3.41,12.3-5.09,7.18-2.95,14.49-5.17,22-7.05,4.79-1.19,8.27-5.59,13.46-6.19.35-.04.84-.68.91-1.1,1.02-5.82,6.26-9.38,8.02-14.67,1.91-5.72,6.11-9.7,9.59-14.2,2.94-3.82,6.16-2.84,8.33,1.47,2.56,5.08,3.26,10.34,2.87,15.88-.27,3.75.86,4.27,4.68,3.24,10.38-2.8,19.82-7.98,30.03-11.13,2.09-.64,4.25-1.42,6,.56,1.61,1.83.3,3.68-.13,5.61-1.26,5.68-4.67,10.26-7.66,14.98-1.86,2.94-4.53,6.37-8.62,1.94-1.24-1.35-2.92-1.02-4.64-.37-7.61,2.85-15.26,5.64-22.95,8.29-2.57.89-4.17,2.62-5.42,4.82-.99,1.73-2.12,3.45-2.71,5.32-2.81,8.86-8.62,15.73-13.97,23.1-6.32,8.7-10.12,18.69-9.66,30,.3,7.39-.56,14.82-.76,22.24-.22,7.99,1.48,14.93,7.59,21.13,5.32,5.4,6.17,13.2,4.45,20.66-1.33,5.75-8.04,6.89-12.59,2.12-6.14-6.44-9.19-14.61-10.9-23.11-1.5-7.45-2.42-15.08-2.82-22.68-.26-5.07.96-10.21,1.26-15.33.08-1.31.84-3.41-.86-3.99-1.71-.58-2.33,1.52-3.22,2.61-4.24,5.19-8.04,10.79-12.66,15.61-9.38,9.82-16.84,21.39-27.75,29.84-6.58,5.1-11.03,12.37-17.35,17.83-3.89,3.36-7.83,6.69-12.5,8.72-3.15,1.37-5.22,4.31-9.02,4.82-5.12.69-10.44-.96-11.65-5.96-1.5-6.14-5.47-11.89-3.71-18.12ZM886.82,1556.57c1.19.35,1.99.02,2.35-.8,3.58-8.26,11.66-13.56,14.33-22.54,3.15-10.62,12.13-17.82,16.67-28.12,4.93-11.18,11-21.89,14.82-33.67,1.1-3.39,1.67-6.72,2.08-10.14.2-1.62.37-3.64-1.8-4.03-1.85-.33-3.23,1.07-3.79,2.67-1.8,5.11-5.17,9.46-7.94,13.86-5.89,9.34-10.72,19.29-17.1,28.4-4.29,6.13-3.56,15.3-10.47,20.48-.27.2-.36,1.06-.16,1.4,1.15,1.98-.25,3.49-.83,5.15-3.14,8.99-7.06,17.76-8.16,27.34Z"/>
        <path class="cls-2" d="M751.33,1619.29c.49-5.63.2-11.95,1.68-18.13.37-1.55,1.4-3.7-.42-4.53-1.96-.89-3.08,1.34-4.27,2.62-3.22,3.44-5.56,7.61-9.21,10.73-2.56,2.2-6.39,2.22-8.32,5.52-2.64,4.51-7.78,6.53-11.1,10.48-2.28,2.71-4.27,6.04-8.56,6.26-.75.04-1.75,1.06-2.13,1.87-2.7,5.69-8.02,7.17-13.41,8.6-.48.13-1.11.17-1.39.49-4.44,5.07-11.52,5.06-16.76,8.9-5.69,4.17-13.14,4.78-19.86,6.68-3.27.92-6.07-2.07-8.41-4.5-1.82-1.89-3.56-4.7-6.51-3.49-2.69,1.1-2.61,4.26-3.1,6.91-1.32,7.16-3.21,14.17-5.78,21-2.64,7.01-3.62,14.44-5.11,21.71-.98,4.74-2.36,9.38-4.03,13.79-2.95,7.8-4.72,15.88-7.04,23.82-2.59,8.92-7.9,15.93-15.34,21.39-2.97,2.18-6.2,1.57-8.1-.82-4.28-5.38-9.93-10.26-10.61-17.64-1.1-11.82,1.36-23.06,7.38-33.32,1.46-2.49,2.44-5.09,3.4-7.71,2.81-7.68,7.88-14.26,10.95-21.63,3.28-7.88,7.44-15.1,12.57-21.55,5.3-6.66,5.39-14.49,7.1-21.9,2.49-10.81,3.97-21.85,5.83-32.81.22-1.29,1.27-3.12-1.28-3.37-1.68-.16-3.57-.29-3.89,1.99-.51,3.67-2.22,5.12-5.8,7.06-3.37,1.82-6.73,5.96-9.59,9.55-1.45,1.82-2.92,3.63-4.33,5.49-2.02,2.67-4.41,4.25-7.64,2.17-2.74-1.76-3.52-7.18-.9-9.27,6.85-5.47,11.94-12.65,18.75-18.27,4.84-3.99,10.1-8.4,13.2-14.38,1.07-2.06,2.32-4.04,3.56-6,2.18-3.47,4.1-8.31,9.02-7.14,5.34,1.27,9.33,5.1,10.24,11.06.89,5.84-.85,11.57-.95,17.38-.02.99-.38,1.98-.36,2.96.03,1.28-.23,3.05,1.37,3.39,1.68.36,2.09-1.41,2.47-2.61,1.29-4.11,5.12-6.07,7.82-8.84,4.21-4.32,8.13-9.12,13.94-11.78,2.93-1.34,3.79-5.03,6.3-7.31,5.72-5.19,12.24-7.05,19.61-8.54,7.33-1.48,11.73,1.16,15.86,6.25,2.9,3.57,3,8.13,2.39,11.9-1.28,7.9-.81,16.35-5.45,23.48-1.72,2.64-3.7,5.11-5.5,7.7-.54.77-1.32,1.77-.22,2.61.91.69,1.63.12,2.53-.57,12.82-9.86,24.94-20.38,36.01-32.28,8.49-9.12,18.57-16.75,29.02-23.65,6.38-4.22,14.53-4.77,20.77-9.44,1.01-.76,2.25-.32,3.39-.04,4.83,1.15,9.76,1.98,14.46,3.54,3.94,1.3,7.44,3.48,5.14,8.82-.54,1.25-.2,2.37,1.26,3.31,8.5,5.53,9.17,14.36,9.55,23.28.41,9.87-4.8,18.11-8.73,26.41-2.17,4.59-6.79,8.39-11.52,11.77-5.14,3.67-9.83,8.13-15.5,11.11-5.07,2.67-9.85,5.86-16,6.37-2.55.21-4.52-.26-6.46-1.2-8.11-3.93-15.8-8.37-20.3-16.78-1.43-2.68-1.12-5.48-1.69-8.87ZM780.44,1635.03c3.56.36,6.85-1.09,10.32-3.63,4.57-3.33,7.13-8.15,10.88-11.94,6.6-6.66,10.05-14.63,12.36-23.33,1.26-4.75,1.34-9.35-4.27-11.73-1.33-.56-1.73-1.64-2.3-2.92-2.07-4.68-.06-7.97,3.16-11.03.8-.76,2.22-1.68,1.38-2.82-1.02-1.38-2.57-.38-3.53.4-2.32,1.88-4.73,3.59-7.23,5.25-3.41,2.27-7.44,1.82-11.19,5.09-6.69,5.85-10.38,13.32-15.44,20.02-.47.62-.55,1.54-.82,2.31-1.54,4.47-1.07,9.6-4.55,13.44-.73.81-.64,2.04.08,2.78,2.01,2.08,1.41,4.61,1.52,7.06.35,7.75,3.05,11.03,9.61,11.03ZM646.3,1639.02c1.99-1.88,3.57-3.78,5.52-5.14,4.83-3.35,10.48-6.54,16-3.7,4.14,2.13,6.25.9,9.23-1.13,8.87-6.04,12.78-15.84,18.57-24.21,3.23-4.68,5.18-10.02,6.12-15.65.79-4.69-1.02-5.99-5.46-6.02-8.64-.04-14.39,6.5-20.58,10.32-7.19,4.43-12.32,12.94-18.54,19.51-2.96,3.13-5.15,7.01-7.21,10.66-2.45,4.34-6.27,8.94-3.66,15.35ZM595.14,1738.18c10.84-17.55,14.8-37.18,18.48-56.89.16-.88.47-2.15-.99-2.36-1.05-.16-2.34.37-2.48,1.27-.61,3.97-4.45,6.22-5.22,9.94-1.17,5.63-2.14,11.27-6.24,15.72-2.65,2.88-.97,6.74-2.19,9.94-2.79,7.31-2.25,14.81-1.36,22.38ZM614.24,1676.55c-.03.28-.05.56-.08.84.08-.13.21-.26.22-.4.01-.14-.09-.3-.14-.44Z"/>
        <path class="cls-2" d="M377.69,1534.67c0,2.03.02,3.36,0,4.69-.08,3.92,1.57,3.61,5,3.16,7.34-.96,13.11-5.85,20.37-7.02,3.51-.57,6.64-3.46,10.44-4.24,1.86-.38,3.65-.87,5.11.68,1.29,1.38.95,2.98.42,4.67-2.1,6.76-5.58,12.74-10.11,18.11-1.81,2.14-3.88,3.25-6.13.41-1.56-1.96-3.6-1.6-5.47-.81-7.51,3.16-15.24,5.69-22.95,8.31-5.84,1.98-6.94,7.97-8.88,12.6-2.91,6.95-6.76,12.97-11.64,18.62-4.02,4.66-6.65,10.24-8.56,16.15-2.68,8.28-2.53,16.74-2.69,25.31-.14,7.6-1.29,15.13.37,22.73.67,3.07,1.73,5.75,4.05,7.79,6.32,5.53,8.01,12.71,7.73,20.69-.12,3.63-1.39,6.66-4.89,7.96-3.38,1.26-6.15-.43-8.43-2.91-5.31-5.78-8.57-12.81-10.21-20.25-1.81-8.23-2.31-16.74-3.3-25.15-.59-5.03,1.6-9.86,1.3-14.87-.08-1.38.44-3.4-1.05-4.03-1.69-.71-2.54,1.24-3.4,2.32-4.16,5.22-7.49,11.37-12.45,15.63-7,6.01-10.35,14.91-17.74,20.48-2.16,1.63-3.38,4.48-5.05,6.76-1.22,1.65-1.9,3.96-4.89,3.13-1.23-.34-2.19.77-2.34,2.07-.27,2.26-1.9,3.44-3.46,4.66-10.86,8.44-21.45,17.28-34.3,22.76-2.63,1.12-4.98,2.51-8.01,1.06-1.03-.49-2.63-.13-3.88.19-10.2,2.69-18.45-.95-23.26-10.31-1.55-3.02-2.69-5.98-6.46-7.63-3.09-1.36-2.6-6.23-1.05-8,5.89-6.71,4.74-15.76,8.6-23.07,2.05-3.88,3.09-7.91,7.06-10.97,3.23-2.49,3.35-7.96,6.73-11.2,1.91-1.83,3.64-3.77,5.91-5.24,6.63-4.29,13.69-7.49,21.31-9.66,6.66-1.9,13.27-1.61,19.52.62,5.07,1.81,6.71,6.36,4.37,10.97-4.23,8.33-11.11,14.12-19.38,18.3-.72.36-1.7.61-2.07,1.21-3.64,5.89-9.04,10.3-14.12,14.58-5.95,5.02-10.64,11.49-17.74,15.31-3.9,2.1-2.17,6.59-2.07,10,.09,3.19,3.18,2.79,5.44,2.87,1.48.05,3.02-.01,4.45-.36,12.02-2.93,22.75-7.96,31.49-17.21,4.62-4.88,10.55-8.52,15.85-12.77,6.42-5.16,12.34-10.87,17.58-17.21,5.23-6.33,10.48-12.68,15.12-19.43,10.25-14.9,23.29-28.15,28.21-46.31.39-1.43.64-2.92.73-4.39.15-2.39-1.07-2.99-3.12-1.97-14.43,7.19-30.39,10.48-44.85,17.73-6.4,3.21-13.65,4.58-20.36,7.33-4.43,1.81-8.48,3.76-11.48,7.47-2.47,3.05-4.29,2.07-6.26-.54-5.01-6.63-3.18-14.63,4.59-19.53,6.98-4.4,15.13-5.87,22.72-8.65,2.96-1.09,5.58-2.67,8.44-3.83,10.73-4.34,21.5-8.84,32.38-12.44,8.99-2.98,17.7-6.49,26.51-9.84,1.01-.38,1.98-.69,2.18-1.73,1.38-7.08,7.27-11.73,9.71-18.4,1.55-4.26,5.46-7.76,8.69-11.25,1.95-2.11,4.27-1.48,5.79,1.02,2.52,4.15,4.88,8.37,3.89,12.85ZM255.47,1631.85c-3.9,1.23-8.24,2.33-11.9,4.97-7.7,5.54-15.08,11.38-17.07,21.48-.22,1.13-.91,2.41.18,3.24,1.08.82,2.2-.05,3.17-.68,2.21-1.45,4.53-2.68,6.44-4.61,7.16-7.24,14.42-14.39,21.67-21.54.67-.66,1.09-1.4.61-2.16-.61-.96-1.76-.66-3.09-.7Z"/>
        <path class="cls-2" d="M1266.67,1527.17c-2.16-.54-3.72,1.24-5.02,2.33-9.3,7.78-18.26,15.78-25.59,25.72-6.94,9.42-15.12,18.04-25.98,23.42-7.84,3.89-16.27-1.36-17.26-10.11-.58-5.14-2.61-10.11-2.38-15.45.09-2.06-1.44-2.26-2.63-1.16-1.88,1.75-4.22,2.8-5.51,5.51-2.28,4.76-5.86,8.69-10.99,10.74-1.03.41-1.57,1.08-2.1,1.95-7.28,12.06-18.06,20.56-29.52,28.17-8.87,5.89-18.69,2.13-23.07-7.42-5.07-11.06-2.27-21.03,2.7-31.08,7.43-15.03,18.82-26.82,31.52-37.2,9.18-7.49,19.85-12.94,31.77-15.09,3.63-.66,6.46,1.42,8.35,4.38,1.05,1.64,1.45,3.69,2.2,5.52.53,1.29.17,3.25,2.19,3.49,2.3.27,2.66-1.84,3.17-3.24,1.51-4.22,4.13-7.09,8.5-8.37,6.74-1.99,10.13.49,10.39,7.57.21,5.67-1.59,10.54-4.36,15.51-4.66,8.38-6.32,17.65-4.84,27.22.51,3.28,3.04,2.89,4.82,1.2,2.98-2.83,5.79-5.9,8.3-9.14,4.93-6.37,10.35-12.38,15.65-18.37,5.14-5.82,12.1-10.14,18.63-14.57,4.48-3.04,8.68-5.87,10.71-11.26,1.43-3.79,6.37-4.59,11.26-2.33,8.68,4,13.4,14.67,10.48,23.89-.42,1.32-1.09,2.63.28,3.6,1.28.91,2.54.28,3.58-.72,1.32-1.27,2.98-2.34,3.88-3.86,4.13-6.95,11.25-10.81,16.77-16.31,5.73-5.72,13.06-9.66,20.49-12.89,9.05-3.93,18.04,5.75,19.74,12.8,1.65,6.82,1.14,13.87,2.1,20.77.2,1.42.18,3.3-.58,4.36-3.35,4.66-1.17,8.25,1.62,12.05,2.78,3.79,6.83,4.49,9.53.45,4.16-6.24,10.29-10.55,14.5-16.92,3.91-5.93,10.96-9.73,15.86-15.33,1.1-1.26,2.81-1.72,3.23,1.29.9,6.35-.23,11.53-4.44,16.91-5.04,6.44-11.1,11.79-16.3,17.95-3.48,4.12-7.14,8.02-10.87,11.9-6.09,6.35-13.42,6.8-20.39,2.96-6.18-3.41-9.76-8.9-11.51-16.67-2.28-10.08-2.9-20.25-4.67-30.3-.64-3.65-3.24-2.8-5.73-1.27-10.54,6.49-19.79,14.41-27.64,24-2.62,3.19-5.11,6.58-8.87,8.62-1.34.73-1.13,2.31-1.75,3.34-1.7,2.79-2.78,6.55-7.24,6.24-.84-.06-1.98.12-2.09.98-.77,6.45-7.09,8.15-10.45,12.35-.52.65-1.08,1.33-1.78,1.74-1.96,1.15-.82,5.27-4.78,4.59-4.38-.75-7.96-3.35-8.91-7.04-1.72-6.66-2.32-13.29,2.02-20.06,5.42-8.46,13.15-16.09,13.01-27.37ZM1190.77,1529.67c-6.07,1.35-11.95-.68-17.49,1.56-14.72,5.94-25.97,15.94-34.39,29.38-2.94,4.69-5.96,9.22-7.71,14.53-1,3.02-.53,5.89,1.38,7.97,2.05,2.24,4.61.58,6.78-.66,1.3-.74,2.58-1.51,3.81-2.36,16.42-11.39,30.54-25.17,42.49-41.17,1.93-2.59,4.43-4.96,5.13-9.25Z"/>
        <path class="cls-2" d="M502.91,1646.69c-.83-5.21.96-10.39,1.14-15.7.04-1.24.83-2.9-.72-3.56-1.52-.64-2.38,1.11-3.15,1.93-4,4.26-8.39,8.33-11.51,13.2-5.29,8.24-12.56,14.65-19.38,21.29-2.28,2.22-4.93,5.73-8.89,6.43-.43.08-1.13.5-1.15.8-.4,6.65-6.86,7.71-10.63,11-4.07,3.54-9.91,5-15.18,5.14-5.47.15-10.37-2.92-13.98-7.41-7.12-8.87-6.41-18.2-3.01-28.52,3.39-10.29,8.01-20,11.84-30.06.83-2.17.98-4.37-1.3-5.75-2.13-1.28-3.71-.06-5.19,1.53-4.19,4.51-9.53,7.65-14.01,11.89-7.13,6.73-14.12,13.72-22.56,18.96-1.92,1.19-2.41,3.89-4.87,4.76-2.66.94-4.11.49-4.5-2.51-.87-6.77,2.31-11.78,7.53-15.23,5.06-3.35,8.97-7.71,13.22-11.87,8.87-8.7,17.47-17.62,25.88-26.78,7.22-7.88,15.96-5.49,20,4.34,2.08,5.06,4.84,9.83,7.37,14.7,2.51,4.84,1.95,9.34-1.52,13.41-5.19,6.07-9.23,13.09-12.8,19.99-2.76,5.33-4.43,11.7-6.34,17.68-.84,2.62.72,3.52,3.23,3.59,5.42.15,9.86-2.55,14.18-5.11,11.61-6.89,21.58-15.71,30.61-25.83,5.27-5.91,9.37-12.92,16.45-17.4,3.72-2.35,5.91-6.88,9.46-10.01,7.18-6.33,14.75-12.13,22.17-18.14,5.13-4.15,11.83-4.43,17.04-7.84,5.15-3.38,10.2-4.22,15.92-2.35,3.31,1.08,6.72,1.89,9.97,3.11,3.47,1.3,5.71,3.41,3.84,7.64-.56,1.27-.77,2.67.97,3.86,8.9,6.09,9.29,15.02,9.33,24.87.04,9.29-5.01,16.3-8.13,24.07-2.02,5.05-6.94,8.82-11.6,12.48-5.31,4.17-10.52,8.37-16.46,11.53-4.47,2.38-8.72,5.23-14.16,5.64-2.39.18-4.41.25-6.69-.56-5.91-2.09-10.84-5.8-15.46-9.74-5.78-4.94-8.26-11.53-6.95-19.43ZM530.68,1665.69c4.21.62,7.27-1.12,10.36-3.33,4.75-3.4,8.27-7.7,11.89-12.28,5.33-6.77,9.58-13.73,11.94-22.02,1.79-6.31,1.28-8.93-3.99-13.13-3.28-2.61-4.04-7.2-1.7-10.74.63-.96,1.56-1.72,2.26-2.65.75-.99,2.24-2.06.79-3.34-.97-.85-2.1-.05-3.09.7-2.51,1.9-5.23,3.55-7.65,5.56-2.16,1.79-5.26-.92-6.53.89-3.01,4.28-8.74,6.04-10.93,10.1-3.71,6.87-9.92,12.72-10.4,21.16-.2,3.56-3.98,7.31-3.13,9.22,1.86,4.21.64,8.6,2.27,12.51,1.52,3.68,1.58,9.28,7.93,7.34Z"/>
        <path class="cls-2" d="M83.55,1693.82c-1.01-11.38-1.72-19.62-2.49-27.85-.33-3.55-2.73-3.85-4.9-2.17-7.08,5.46-13.08,11.76-17.64,19.77-2.17,3.82-3.7,9.65-9.82,10.42-2,.25-2.64,1.92-2.48,3.75.56,6.53-4.67,10.03-7.89,14.37-4.4,5.93-8.67,11.83-10.92,18.91-1.03,3.24-5.05,3.96-8.54,1.26-4.55-3.53-6.95-15.14-4.56-20.71,3.29-7.67,8.05-14.48,12.24-21.63,1.63-2.78,2.6-5.73,3.35-8.78.34-1.4.75-3.14-1.1-3.9-1.45-.6-2.94-.32-4.22.71-5.14,4.15-10.45,8.09-13.4,14.34-1.52,3.22-4.29,6.76-7.83,5.13-3.73-1.73-3.84-6.44-2.8-10.28,1.4-5.14,4.98-8.9,8.97-12.27,2.28-1.92,5.05-3.51,6.69-5.88,5.35-7.71,14.11-8.87,21.85-11.93,2.68-1.06,4.44,1.23,5.24,3.46,1.11,3.11,1.69,6.41,2.56,9.61.31,1.16-.66,3.05,1.21,3.29.8.1,1.99-1.02,2.64-1.87,5.97-7.86,15.31-12.05,21.37-19.8,3.29-4.22,8.88-4.66,12.97-7.83,3.23-2.5,13.59,4.69,13.56,9.53-.03,5.61,2.31,10.66,2.64,16.17.2,3.32.39,6.57,0,9.86-.13,1.12-.41,2.46.86,3.13,1.32.7,2.49.26,3.6-.75,4.06-3.67,8.24-7.34,11.27-11.86,6.21-9.28,14.78-15.76,24.06-21.42,4.68-2.86,13.22,2.82,14.28,8.59,1.02,5.59,1.73,11.22,3.29,16.78,1.05,3.74.6,8.37.64,12.61.04,4.99,1.77,5.96,6.17,3.78,2.99-1.48,6.74-2.19,7.08-6.55,7.54-2.76,9.02-11.74,15.8-15.37,3.85-2.06,4.31-1.7,5.66,2.29,1.79,5.31.42,8.93-4.03,11.91-1.06.71-1.79,1.96-2.53,3.06-3.38,5.03-7.58,9.24-12.46,12.81-3.71,2.72-5.96,6.69-8.54,10.33-2.83,3.98-6.18,5.49-11.11,4.1-7.85-2.21-10.49-7.07-13.36-15.36-2.26-6.53-3.26-12.97-4.2-19.59-.3-2.13-.28-4.3-.49-6.44-.12-1.21.65-2.84-1.16-3.39-1.47-.45-2.41.61-3.47,1.46-4.38,3.51-5.83,9.7-11.26,12.23-2.36,11.35-12.21,18.03-17.37,27.79-5.66,10.71-8.1,11.52-15.62.15-3.96-5.98-3-12.7-3.83-15.94Z"/>
        <path class="cls-2" d="M1507.85,1483.56c.36,3.55-1.03,7.04-2.94,10.11-5.33,8.62-7.19,17.96-6.72,27.91.07,1.58-.52,3.6,1.61,4.27,1.92.61,3.69-.14,4.88-1.71,4.33-5.74,9.5-10.76,13.91-16.46,2.81-3.64,6.04-6.94,8.65-10.81,1.78-2.64,5.21-1.42,5.47,2.2.42,5.79-.28,11.89-3.41,16.72-5.89,9.09-13.71,16.7-22.15,23.41-3.85,3.06-8.4,5.9-14.18,4.66-5.73-1.23-9.15-4.66-9.92-10.56-.68-5.22-2.65-10.24-2.19-15.65.17-1.97-.84-2.93-2.69-1.39-2.23,1.86-4.87,3.11-6.03,6.32-.85,2.35-2.72,4.92-4.86,6.11-6.43,3.6-9.84,9.95-14.68,14.97-6.25,6.49-13.07,12.27-20.21,17.71-5.98,4.55-12.69,4.93-19.29,1.79-5.91-2.81-6.74-9.15-8.37-14.58-2.14-7.11-.14-14.16,2.84-20.48,6.41-13.61,15.89-24.84,26.9-35.28,8.55-8.1,18.59-13.04,28.5-18.47,3.7-2.03,8.51-2.99,12.84-2.12,5.06,1.01,6.42,5.68,7.68,10.08.38,1.33.28,3.35,2.29,3.37,1.72.01,2.26-1.77,2.97-3.02.9-1.57,1.4-3.4,2.45-4.86,2.31-3.22,9.45-5.69,12.49-4.55,2.61.98,4.18,4.79,4.14,10.3ZM1421.09,1541.21c-.08,7.1,2.67,8.99,7.94,5.97,6.92-3.96,12.62-9.65,18.99-14.29,12.34-8.99,20.62-21.36,30.18-32.69,1.29-1.53,3.76-3.44,2.43-5.49-1.11-1.72-3.66-.05-5.57.11-.66.05-1.33.06-1.99,0-9.79-.84-17.62,3.88-24.9,9.38-6.96,5.27-13.28,11.34-17.84,18.96-1.1,1.84-1.73,4.28-3.31,5.44-4.7,3.46-3.11,9.41-5.92,12.6Z"/>
      </g>
      <g>
        <path class="cls-1" d="M352.93,1262.2h-81.16v51.3h92.49v35.87h-126.61v-199.53h122.53v35.33h-88.41v42.37h81.16v34.65Z"/>
        <path class="cls-1" d="M412.06,1349.38h-32.53v-199.53h50.78l30.38,156.89,30.15-156.89h50.21v199.53h-32.53v-134.96c0-3.88.04-9.32.11-16.31.07-6.99.11-12.39.11-16.18l-31.62,167.45h-33.89l-31.4-167.45c0,3.79.04,9.18.11,16.18.07,7,.11,12.43.11,16.31v134.96Z"/>
        <path class="cls-1" d="M659.91,1308.36h-61.55l-11.56,41.02h-36.5l59.62-199.53h39.45l59.17,199.53h-37.86l-10.77-41.02ZM650.16,1273.98l-20.86-78.51-21.54,78.51h42.39Z"/>
        <path class="cls-1" d="M778.99,1320.55c8.24,0,14.92-1.08,20.06-3.25,9.75-4.15,14.62-11.87,14.62-23.15,0-6.59-2.42-11.69-7.25-15.3-4.84-3.52-12.43-6.63-22.78-9.34l-17.68-4.74c-17.38-4.69-29.4-9.79-36.04-15.3-11.26-9.21-16.89-23.6-16.89-43.18,0-17.87,5.44-32.71,16.32-44.54,10.88-11.82,26.86-17.73,47.95-17.73,17.61,0,32.62,5.57,45.06,16.72,12.43,11.15,18.95,27.32,19.55,48.53h-33.55c-.61-12-4.99-20.53-13.15-25.58-5.44-3.34-12.2-5.01-20.29-5.01-8.99,0-16.17,2.17-21.54,6.5-5.37,4.33-8.05,10.38-8.05,18.14,0,7.13,2.64,12.45,7.93,15.97,3.4,2.35,10.66,5.1,21.76,8.26l28.79,8.26c12.62,3.61,22.14,8.44,28.56,14.48,9.97,9.39,14.96,22.97,14.96,40.75s-5.84,33.37-17.51,45.42-28.17,18.07-49.48,18.07-38.88-5.93-51.35-17.8c-12.47-11.87-18.7-28.18-18.7-48.94h33.32c1.06,9.12,3.13,15.93,6.23,20.44,5.67,8.21,15.38,12.32,29.13,12.32Z"/>
        <path class="cls-1" d="M978.11,1262.2h-81.16v51.3h92.49v35.87h-126.61v-199.53h122.53v35.33h-88.41v42.37h81.16v34.65Z"/>
        <path class="cls-1" d="M1065.91,1320.55c8.24,0,14.92-1.08,20.06-3.25,9.75-4.15,14.62-11.87,14.62-23.15,0-6.59-2.42-11.69-7.25-15.3-4.84-3.52-12.43-6.63-22.78-9.34l-17.68-4.74c-17.38-4.69-29.4-9.79-36.04-15.3-11.26-9.21-16.89-23.6-16.89-43.18,0-17.87,5.44-32.71,16.32-44.54,10.88-11.82,26.86-17.73,47.95-17.73,17.61,0,32.62,5.57,45.06,16.72,12.43,11.15,18.95,27.32,19.55,48.53h-33.55c-.61-12-4.99-20.53-13.15-25.58-5.44-3.34-12.2-5.01-20.29-5.01-8.99,0-16.17,2.17-21.54,6.5-5.37,4.33-8.05,10.38-8.05,18.14,0,7.13,2.64,12.45,7.93,15.97,3.4,2.35,10.66,5.1,21.76,8.26l28.79,8.26c12.62,3.61,22.14,8.44,28.56,14.48,9.97,9.39,14.96,22.97,14.96,40.75s-5.84,33.37-17.51,45.42-28.17,18.07-49.48,18.07-38.88-5.93-51.35-17.8c-12.47-11.87-18.7-28.18-18.7-48.94h33.32c1.06,9.12,3.13,15.93,6.23,20.44,5.67,8.21,15.38,12.32,29.13,12.32Z"/>
        <path class="cls-1" d="M1246.55,1308.36h-61.55l-11.56,41.02h-36.5l59.62-199.53h39.45l59.17,199.53h-37.86l-10.77-41.02ZM1236.8,1273.98l-20.86-78.51-21.54,78.51h42.39Z"/>
      </g>
    </g>
  </g>
</svg>