<?xml version="1.0" encoding="utf-8"?>
<!-- Generator: $$$/GeneralStr/196=Adobe Illustrator 27.6.0, SVG Export Plug-In . SVG Version: 6.00 Build 0)  -->
<svg version="1.1" id="grafico_hola" xmlns="http://www.w3.org/2000/svg" xmlns:xlink="http://www.w3.org/1999/xlink" x="0px"
	 y="0px" viewBox="0 0 467.6 467" style="enable-background:new 0 0 467.6 467;" xml:space="preserve">
<style type="text/css">
	.st0{opacity:0.311;fill:#DCF6FA;enable-background:new    ;}
	.st1{fill:#CACACA;}
	.st2{fill:#3F3D56;}
	.st3{fill:#FFB6B6;}
	.st4{fill:#3A4690;}
	.st5{fill:#2F2E41;}
	.st6{fill:#DB7575;}
	.st7{fill:#4957B4;}
	.st8{opacity:0.2;enable-background:new    ;}
	.st9{fill:#E4E4E4;}
	.st10{opacity:0.17;enable-background:new    ;}
	.st11{fill:#F3DAC6;}
	.st12{fill:#FFFFFF;}
	.st13{opacity:0.413;fill:#FFFFFF;enable-background:new    ;}
</style>
<path id="Trazado_207" class="st0" d="M467.6,233.5c0.1,32.5-6.7,64.7-19.9,94.4c-0.4,1-0.9,1.9-1.3,2.9c-0.2,0.5-0.4,0.9-0.7,1.4
	s-0.4,0.9-0.7,1.4c-0.3,0.6-0.6,1.2-0.9,1.8c-0.4,0.8-0.7,1.5-1.1,2.3c0,0.1-0.1,0.2-0.2,0.3c-0.3,0.6-0.6,1.3-1,1.9
	c-0.1,0.1-0.1,0.3-0.2,0.4c-0.4,0.7-0.8,1.5-1.2,2.2v0c-0.4,0.8-0.8,1.6-1.3,2.4c-1,1.9-2.1,3.8-3.2,5.7c-0.3,0.6-0.7,1.1-1,1.7
	c-0.3,0.5-0.6,1-0.9,1.6c-0.2,0.4-0.4,0.7-0.7,1.1c-0.4,0.6-0.7,1.2-1.1,1.7c0,0,0,0,0,0c-0.8,1.3-1.6,2.6-2.4,3.8h0
	c-0.4,0.6-0.8,1.2-1.1,1.8v0c-1.2,1.7-2.3,3.5-3.6,5.2v0c0,0,0,0,0,0v0l0,0c-1,1.4-1.9,2.7-2.9,4.1v0c-0.6,0.9-1.3,1.7-1.9,2.6
	c-0.5,0.7-1.1,1.4-1.6,2.1c-0.1,0.2-0.2,0.3-0.3,0.4v0c-0.1,0.2-0.3,0.4-0.4,0.6v0c-2.3,2.9-4.7,5.8-7.1,8.6h0
	c-0.1,0.2-0.3,0.3-0.4,0.5s-0.3,0.3-0.4,0.5h0c-0.2,0.2-0.4,0.5-0.6,0.7s-0.4,0.5-0.6,0.7v0c-12.7,14.4-27.2,27.1-43,37.9
	c-2.1,1.5-4.2,2.9-6.4,4.2c-0.5,0.3-1.1,0.7-1.6,1c-0.2,0.1-0.3,0.2-0.5,0.3c-0.3,0.2-0.6,0.4-0.9,0.5s-0.6,0.4-0.9,0.5
	c-1.2,0.7-2.3,1.4-3.5,2.1c-0.3,0.2-0.6,0.3-0.9,0.5s-0.6,0.3-0.9,0.5c0,0,0,0,0,0l0,0l0,0h0c-1.5,0.8-2.9,1.7-4.4,2.5
	c-2.7,1.5-5.4,2.9-8.1,4.2c-0.7,0.3-1.4,0.7-2,1c-0.6,0.3-1.1,0.5-1.7,0.8c-0.2,0.1-0.3,0.2-0.5,0.2c-0.5,0.2-0.9,0.4-1.4,0.7
	c-0.5,0.2-1,0.5-1.5,0.7c-0.6,0.3-1.1,0.5-1.7,0.8c-2.2,1-4.4,1.9-6.6,2.8c-7.9,3.2-15.9,6-24,8.3c-0.4,0.1-0.8,0.2-1.1,0.3
	c-3.5,1-7,1.9-10.6,2.7c-6.2,1.4-12.4,2.6-18.7,3.5c0,0,0,0,0,0c-0.8,0.1-1.5,0.2-2.3,0.3c-0.1,0-0.1,0-0.2,0c0,0,0,0,0,0s0,0,0,0
	c-0.8,0.1-1.7,0.2-2.5,0.3c-0.1,0-0.1,0-0.2,0c-0.8,0.1-1.6,0.2-2.4,0.3c-0.8,0.1-1.7,0.2-2.5,0.3c-0.6,0.1-1.3,0.1-1.9,0.2
	c-0.1,0-0.1,0-0.2,0c-0.6,0.1-1.2,0.1-1.8,0.2c0,0-0.1,0-0.1,0c-0.5,0-1,0.1-1.5,0.1c-6,0.5-12.1,0.7-18.3,0.7
	c-6.7,0-13.3-0.3-19.8-0.8c0,0,0,0-0.1,0c-1.4-0.1-2.8-0.2-4.2-0.4c-0.4,0-0.7-0.1-1.1-0.1c-0.1,0-0.1,0-0.2,0l-0.3,0
	c-0.1,0-0.1,0-0.2,0c-0.5-0.1-1-0.1-1.5-0.2c-0.5-0.1-1.1-0.1-1.6-0.2s-1.1-0.1-1.6-0.2c-0.1,0-0.2,0-0.4,0c-0.4,0-0.8-0.1-1.2-0.2
	c-0.2,0-0.4-0.1-0.6-0.1c-0.4-0.1-0.8-0.1-1.1-0.2c0,0,0,0,0,0c-11.9-1.7-23.7-4.4-35.2-7.9h0c-0.6-0.2-1.2-0.4-1.9-0.6
	c-0.2-0.1-0.4-0.1-0.6-0.2c-1.6-0.5-3.2-1.1-4.8-1.6c-2.2-0.8-4.4-1.5-6.6-2.4l-1.8-0.7c-1.2-0.5-2.4-0.9-3.5-1.4
	c-2-0.8-4-1.7-6-2.5h0v0c-1.8-0.8-3.7-1.6-5.5-2.5c-0.1,0-0.1,0-0.2-0.1c0,0,0,0,0,0c-0.4-0.2-0.8-0.4-1.2-0.6l0,0
	c-10-4.8-19.6-10.3-28.9-16.5c-3-2-5.9-4-8.7-6.1c-2.3-1.7-4.6-3.4-6.8-5.2c-11.1-8.8-21.5-18.7-30.8-29.4h0v0
	c-0.7-0.8-1.3-1.5-2-2.3v0c-0.1-0.1-0.2-0.2-0.3-0.3c-0.4-0.5-0.8-1-1.2-1.5v0c-0.5-0.6-1.1-1.3-1.6-1.9c-0.1-0.1-0.2-0.3-0.3-0.4h0
	v0c-0.4-0.5-0.9-1.1-1.3-1.6c-0.2-0.3-0.4-0.5-0.6-0.8h0v0c-1.3-1.6-2.5-3.2-3.7-4.9v0c-0.3-0.4-0.7-0.9-1-1.4h0
	c-1.6-2.1-3.1-4.2-4.6-6.4v0c-0.6-0.8-1.1-1.6-1.7-2.4s-1.1-1.6-1.6-2.5h0c-0.6-0.9-1.1-1.7-1.6-2.6c0,0-0.1-0.1-0.1-0.1
	c-0.5-0.8-1.1-1.7-1.6-2.5c-0.4-0.7-0.8-1.4-1.2-2c-0.3-0.5-0.6-0.9-0.8-1.4c-0.1-0.2-0.2-0.3-0.3-0.5c-0.6-1.1-1.2-2.1-1.8-3.2
	c-0.7-1.2-1.4-2.5-2.1-3.8c-0.3-0.5-0.6-1-0.8-1.6c-0.1-0.2-0.2-0.3-0.3-0.5c-0.3-0.6-0.7-1.2-1-1.9s-0.6-1.2-1-1.9
	s-0.6-1.2-0.9-1.9c-0.2-0.5-0.5-0.9-0.7-1.4c0,0,0-0.1-0.1-0.1c-0.1-0.2-0.2-0.4-0.3-0.7c0,0,0-0.1-0.1-0.1c-0.2-0.5-0.5-1-0.7-1.5
	c-0.3-0.6-0.6-1.3-0.9-1.9c-0.2-0.4-0.4-0.9-0.6-1.3c-0.3-0.6-0.6-1.3-0.9-1.9c-0.3-0.7-0.6-1.3-0.9-2c-0.1-0.2-0.1-0.3-0.2-0.5
	c-0.1-0.3-0.3-0.6-0.4-0.9c-0.3-0.8-0.7-1.6-1-2.4c-0.4-0.9-0.7-1.8-1.1-2.7c-0.3-0.9-0.7-1.7-1-2.6l-0.1-0.3v0
	c-5.1-13.3-8.9-27-11.5-41v0c-1.5-8-2.5-16.1-3.1-24.2c0-0.4-0.1-0.9-0.1-1.3C0.2,244.5,0,239,0,233.5c0-2.5,0-4.9,0.1-7.3
	C1.6,175.4,19.8,126.5,51.7,87c1.4-1.7,2.8-3.5,4.3-5.2c84-98.2,231.8-109.7,330-25.7c17.7,15.2,33.1,32.9,45.6,52.6
	c2.2,3.4,4.2,6.8,6.2,10.4C457.4,154.1,467.7,193.5,467.6,233.5z"/>
<path id="Trazado_218" class="st1" d="M418,371.2v5.7c-2.3,3.1-4.7,6.1-7.1,9.1c-0.3,0.3-0.5,0.6-0.8,1c-0.4,0.5-0.8,1-1.3,1.5
	v-17.3H418z"/>
<path id="Trazado_219" class="st2" d="M391,359.5c-4.3,0.1-7.8,3.7-7.7,8.1v11.6c-0.1,4.3,3.3,7.9,7.7,8.1h19c0.3-0.3,0.5-0.6,0.8-1
	c2.4-3,4.8-6,7.1-9.1c0.2-0.2,0.3-0.4,0.4-0.6c1.3-1.8,2.6-3.6,3.9-5.4c1-1.4,2-2.9,2.9-4.3c0,0,0,0,0,0c1.6-2.4,3.2-4.8,4.7-7.3
	L391,359.5z"/>
<path id="Trazado_220" class="st2" d="M440.1,262.2c-1.2-0.4-2.4-0.6-3.6-0.6h-3.1c-1.1,0-2.3,0.2-3.4,0.5c-4.8,1.7-8,6.3-7.9,11.4
	v96.8c0,0.4,0,0.7,0,1.1c0.1,0.6,0.2,1.2,0.3,1.8c1-1.4,2-2.9,2.9-4.3c0,0,0,0,0,0c1.6-2.4,3.2-4.8,4.7-7.3c0.8-1.3,1.6-2.7,2.4-4
	c5.8-9.8,10.9-19.9,15.3-30.4v-53.6C447.8,268.5,444.7,264,440.1,262.2z"/>
<path id="Trazado_221" class="st3" d="M304,435.6l-7.9-4l10.9-34.9l11.7,5.9L304,435.6z"/>
<path id="Trazado_222" class="st3" d="M357.3,430c-2.3,1.5-4.6,3-7,4.4v0l0,0l0,0l-0.9,0.2l-1.3-3.6l-3-8.3l-8.1-22.5l12.6-3.3
	l0.7,3l5.3,22.7l1.5,6.5L357.3,430z"/>
<path id="Trazado_223" class="st3" d="M325.1,292.8c2.2,3.9,7.1,5.3,10.9,3.1c0.1-0.1,0.2-0.1,0.3-0.2c0.4-0.2,0.7-0.5,1.1-0.8
	l25.1,15.2l-1.1-15.6l-23.7-12c-2.6-2.8-6.8-3.4-10-1.4c-3.8,2.5-5,7.5-2.7,11.5C325.1,292.7,325.1,292.8,325.1,292.8z"/>
<path id="Trazado_224" class="st4" d="M351.7,304.6l4.4,2.8l19.9,12.8c5.3,3.5,12.3,2,15.8-3.3c0.1-0.2,0.3-0.4,0.4-0.6l0,0
	c1.5-2.6,2-5.6,1.5-8.5l-8.9-46.5c-0.6-3.6-2.8-6.8-5.9-8.8c-3.1-1.9-6.8-2.3-10.2-1c-5.9,2.4-9.1,8.8-7.4,14.9l9.3,33l-14.2-7
	L351.7,304.6z"/>
<path id="Trazado_225" class="st5" d="M433.4,341.4c0,0,0-0.1,0-0.2l0-0.1c0-0.2-0.1-0.5-0.1-0.7c-1.2-6.2-2.7-12.3-4.6-18.4
	c-1.1-3.7-2.6-7.2-4.4-10.6c-0.1-0.1-0.1-0.2-0.2-0.3l-0.2-0.4l-1.8,0.7l-0.1,0L394.4,322l-8,3.1l-0.3,0.1l-1.4,5.8l-19.1-2.6
	l-15.5-2.1l-4.5-0.6c-3.9-0.5-7.9,0.6-11,3.2c-3.3,2.7-5.4,6.6-5.8,10.8c-0.1,0.5-0.1,0.9-0.1,1.4l-1.3,52.9v0.1l0.6,1.3l13,27.5h9
	l5.3,0h4.3l-9-24l0.2-0.3c1.7-2.8,2.1-6.2,1-9.3l1-3.1c2.1-6.4,1.1-9.5-0.2-13.3c-1.1-3.2-1.8-6.5-2-9.8l-0.2-4.4
	c5.3,1,10.2,2.1,15,3.2c1.6,0.4,3.2,0.7,4.7,1.1c4.4,1,8.7,2,12.9,2.9c8.5,1.7,16.6,2.7,24.9,2.1c0.2,0,0.3,0,0.5,0
	c2.1-0.2,4.1-0.5,6.1-0.8c1.2-0.2,2.3-0.5,3.5-0.8l1-0.3c0.9-0.3,1.8-0.6,2.6-1.1c1.2-0.7,2.3-1.5,3.2-2.5c0,0,0,0,0,0
	c1.6-2.4,3.2-4.8,4.7-7.3c0.8-1.3,1.6-2.7,2.4-4C433.6,347.9,433.9,344.6,433.4,341.4z"/>
<path id="Trazado_226" class="st6" d="M433.6,331.4c-0.1-0.4-0.2-0.8-0.3-1.2c-0.9-2.9-2-5.8-3.2-8.6c-1.4-3.2-3-6.6-5-10.3
	c-1-1.8-2-3.7-3.1-5.6c-0.5-1-1.1-2-1.7-3c0,0,0-0.1-0.1-0.1l-0.2-0.3l-27.3,3.8l-10.2,1.4L382,313l-0.1,1.3c0,0,0,0,0,0l-0.4,3.6v0
	l-0.5,4.7l0,0l-15.1-2.1l-15.5-2.1l-8.3-1.1c-3.9-0.5-7.9,0.6-11,3.2c-3.3,2.7-5.4,6.6-5.8,10.8c-0.1,0.4-0.1,0.9-0.1,1.3l-7.9,19.6
	c-4.7,11.8-7.7,24.2-8.9,36.8l-5.8,19.4l0.8,0.1l12.2,1.2l3.2,0.3l7.1-10.9c0.8-1.2,1.6-2.5,2.3-3.8c1.2-2.1,2.2-4.4,3.1-6.7
	l15.4-38.5c1.2,0.2,2.4,0.4,3.5,0.6c5.4,0.9,10.6,1.7,15.5,2.3c16.1,1.9,30.1,2,42.5,0.4c3.5-0.4,6.9-1,10.1-1.8
	c1.2-0.3,2.4-0.6,3.5-0.9c0.3-0.1,0.5-0.1,0.8-0.2c5-1.4,8.9-5.3,10.4-10.2C434.2,337.5,434.3,334.4,433.6,331.4z"/>
<ellipse id="Elipse_18" class="st3" cx="375.6" cy="209.2" rx="18.9" ry="20.3"/>
<path id="Trazado_227" class="st7" d="M420.4,312.8c0-0.2-0.1-0.5-0.1-0.7c-0.6-2.5-1.5-5-2.7-7.3c-1.1-2.1-1.9-4.3-2.5-6.5
	c-0.3-2.1-0.3-4.2,0.1-6.2c0.4-2.2,0.4-4.5-0.1-6.7c-3-11.2-7.2-22.1-12.5-32.4c-2.5-9.1-10.1-15.8-19.4-17.2c0.5-1,0.7-2.2,0.6-3.3
	c-0.1-1.5-0.9-2.9-2-3.8c-1.1-0.9-2.5-1.3-3.8-1.2l-8.8,1c-3,0.5-5.1,3.3-4.7,6.3c0,0.5,0.1,0.9,0.3,1.3
	c-8.1,10.9-12.3,20.8-12.7,30.2v0c0,1.1,0,2.2,0,3.3c0.2,3.5,0.9,6.9,2.1,10.2c1.4,3.8,3.4,7.3,5.8,10.5c0.5,0.7,1,1.3,1.5,1.9
	c0.5,0.6,1,1.3,1.6,1.9l1.5,2.5l1.4,2.4l7.6,18.5l3.9-0.1l0.5,4.1l0.1,1l2.5,9.5l0.2,0.7l3.4-1.7l20.6-10.3l15.4-7.7L420.4,312.8z"
	/>
<path id="Trazado_228" class="st8" d="M354.4,280.3c1.7,4.5,4.2,8.7,7.3,12.3c0.5,0.7,1.1,1.3,1.7,2l3,4.9
	c11-8.7,19.9-42.8,19.9-42.8l-12.4-2.5L354.4,280.3z"/>
<path id="Trazado_229" class="st3" d="M346.9,229.1c2.3,4.1,1,9.2-2.8,11.8c-0.4,0.2-0.8,0.4-1.2,0.6l0.9,30.4l-12.5-8.3l1.1-27.6
	c-1.1-3.7,0.3-7.8,3.6-9.9c3.6-2.3,8.4-1.2,10.6,2.4c0.1,0.1,0.2,0.3,0.2,0.4C346.8,228.9,346.9,229,346.9,229.1z"/>
<path id="Trazado_230" class="st7" d="M344.9,258.8l-13.8,2.1l0.6,30c0,4.3,2.2,8.3,5.8,10.6l0,0c4.4,2.7,10.1,2,13.7-1.6l32.5-32.9
	c4.8-4.9,5.1-12.5,0.9-17.8l0,0c-3.8-4.9-10.9-5.8-15.9-2c-0.2,0.2-0.4,0.3-0.6,0.5c-0.1,0.1-0.2,0.2-0.3,0.3
	c-0.3,0.3-0.6,0.6-0.9,1l-21.5,26L344.9,258.8z"/>
<path id="Trazado_231" class="st5" d="M357.6,429.2l-0.5,0.1l-6.9,1.3l-2.2,0.4l-3.5,0.7l1.2,5.3c1.5-0.9,3-1.7,4.5-2.6l0,0l0,0v0
	c2.4-1.4,4.7-2.9,7-4.4c0.2-0.1,0.3-0.2,0.5-0.3L357.6,429.2z"/>
<path id="Trazado_232" class="st5" d="M306.6,429.9l-8.6-4.3l-1.3-0.7l-2.2,5.6l-15,3.5c-1.6,0.4-2.7,1.7-2.8,3.3
	c-0.2,1.6,0.7,3.1,2.2,3.8l14.7,6.3l4.7-4.4l-1.1,5.9l5.5,2.4l6.1-20.3L306.6,429.9z"/>
<path id="Trazado_233" class="st5" d="M426.1,200.6c-3.2-3.9-4.7-9.2-7.3-13.6s-7-8.5-11.7-7.4c-3.2,0.7-5.8,3.7-7,7.1
	s-1.5,7.1-1.7,10.7c0.1-7.5-4.6-14.7-11-17.1s-14.1,0.3-18.2,6.3c-3.6-3.6-9.3-3.7-13.1-0.3c-3.6,3.4-4.4,9.9-1.8,14.2
	c2.6,4.3,8.2,5.9,12.7,3.6l1.5,1.4c-0.8,3.1,0.8,6.8,3.5,7.9c2.2,0.9,5.4,0.8,6.2,3.2c0.6,1.7-0.5,3.5-1.7,4.9s-2.5,2.7-2.7,4.5
	c-0.2,2.8,2.5,4.7,5,5.3c5.9,1.4,12.5-1.5,15.9-7c0.1-0.1,0.1-0.2,0.2-0.3c3.9-5.3,5.6-11.9,4.6-18.4c-0.2-1.3,0-2.2,0.8-2.5
	c3.6-1.3,13.7,1.4,16.8,3.9s5.5,5.7,8.4,8.4s6.7,4.7,10.4,3.9c3-0.6,5.5-2.9,7.3-5.6c1.6-2.9,2.8-6,3.6-9.2
	C440.2,208.5,431.1,206.8,426.1,200.6z"/>
<path id="Trazado_234" class="st9" d="M365.8,307.4v116.7c-2.8,1.5-5.6,3-8.5,4.5V315.2c0-3.3-1.4-6-3.1-6H225.9
	c-1.7,0-3.1,2.7-3.1,6v150.6c-1.7,0.1-3.4,0.3-5.1,0.4c-0.7,0-1.4,0.1-2.1,0.1c-0.4-0.6-0.8-1.2-1.2-1.8v-157c0-0.9,0-1.8,0.1-2.7
	c0.7-7.7,4.1-13.3,8.2-13.3h134.9c0.5,0,1,0.1,1.4,0.2c3.4,1.1,6,6.1,6.7,12.6C365.7,305.3,365.8,306.4,365.8,307.4z"/>
<path id="Trazado_235" class="st2" d="M263.2,265.1l-6.8,31.3l-4.3,5h-3.1l12.8-56.8l0.6,9.7v0L263.2,265.1z"/>
<path id="Trazado_236" class="st2" d="M295.7,295.8l-39.6-0.3l-3.5,0l-2.5,0l-2.9,0h0c-0.4,0-0.8,0.2-1.1,0.5l-4.9,5.2
	c-0.1,0.1-0.2,0.2-0.3,0.4c0,0-0.1,0.1-0.1,0.1c-0.2,0.5-0.2,1.1,0.1,1.6c0.3,0.5,0.8,0.8,1.4,0.8h51.3c0.6,0,1.2-0.4,1.5-1l0.4-0.9
	l0.8-1.9l0.9-2.1c0.1-0.2,0.2-0.5,0.2-0.7C297.4,296.6,296.6,295.8,295.7,295.8z"/>
<path id="Trazado_237" class="st10" d="M295.4,302.1L295,303c-0.3,0.6-0.8,1-1.5,1h-51.3c-0.6,0-1.1-0.3-1.4-0.8
	c-0.3-0.5-0.3-1.1-0.1-1.6c0,0,0-0.1,0.1-0.1L295.4,302.1z"/>
<path id="Trazado_238" class="st10" d="M262.5,254.1L262.5,254.1l-11,47.2h-2.5l12.8-56.8L262.5,254.1z"/>
<path id="Trazado_239" class="st2" d="M276,267.2l-15.6-124.5c-0.1-0.5-0.3-0.9-0.6-1.2l-10.7-14.1l-1-0.8c-0.4-0.3-0.8-0.4-1.2-0.4
	l-1.6,0.2c-0.9,0.2-1.6,1-1.5,2l0,0l16.1,129v0l1,7.9l1.2,9.4v0l1.8,14.6c0.1,0.5,0.3,0.9,0.7,1.2c0.4,0.3,0.9,0.4,1.4,0.3l1-0.3
	c0.4-0.1,0.7-0.4,1-0.7l0.5-0.7l0.2-0.3l7-20.4C276,268.1,276.1,267.7,276,267.2z"/>
<path id="Trazado_240" class="st10" d="M249.1,127.5l19.6,161.4l-0.2,0.3l-0.5,0.7c-0.2,0.3-0.6,0.6-1,0.7l-1,0.3
	c-0.5,0.1-1,0-1.4-0.3c-0.4-0.3-0.7-0.7-0.7-1.2l-20.1-160.8c-0.1-0.9,0.5-1.8,1.5-2l1.6-0.2c0.4-0.1,0.9,0.1,1.2,0.4L249.1,127.5z"
	/>
<path id="Trazado_241" class="st11" d="M249.7,132.7l10.4,15.6l12.3,98.8l-6.7,14L249.7,132.7z"/>
<path id="Trazado_242" class="st2" d="M433.3,321.7c0,2.2-1.3,4.1-3.3,5c-0.5,0.2-0.9,0.3-1.4,0.3c-0.1,0-0.3,0-0.4,0h-9.8v50
	c-0.1,0.2-0.3,0.4-0.4,0.6c-2.3,3.1-4.7,6.1-7.1,9.1c-1.6-1-2.6-2.7-2.6-4.6V327h-21.9c-0.6,0-1.3-0.1-1.9-0.4
	c-1.6-0.7-2.7-2.1-3-3.7v0c-0.3-1.2-0.1-2.5,0.4-3.6c0,0,0,0,0,0c0.2-0.5,0.5-0.9,0.9-1.3c0.9-1,2.2-1.6,3.6-1.6h41.9
	C431.1,316.5,433.4,318.9,433.3,321.7L433.3,321.7z"/>
<path id="Trazado_243" class="st2" d="M433,225.2c-8.8,0-15.9,7.5-15.9,16.7l0,0c0,8,5.4,14.9,12.8,16.4v27.3h10.1v-60.4H433z"/>
<path id="Trazado_250" class="st12" d="M325.8,105.4c0.2,0,0.3-0.1,0.5-0.1c-0.7-0.5-1.4-1-2-1.6L325.8,105.4z"/>
<path id="Trazado_251" class="st13" d="M437.7,119.8c-7.8,0.7-15.7,1.1-23.5,1.5c-6,0.3-12,0.3-18-0.1c-13.2-1.2-24.5-5.5-37-7.9
	c-11.5-2.2-25.5-3.2-32.8-8.1c18.9-3.4,38.5,3.6,58,6.2c15.8,2,31.8,1.2,47.2-2.5C433.7,112.4,435.8,116.1,437.7,119.8z"/>
</svg>
