<?xml version="1.0" encoding="UTF-8"?>
<svg id="Capa_2" data-name="Capa 2" xmlns="http://www.w3.org/2000/svg" viewBox="0 0 316.76 316.76">
  <defs>
    <style>
      .cls-1 {
        isolation: isolate;
        opacity: .27;
      }

      .cls-1, .cls-2, .cls-3, .cls-4, .cls-5, .cls-6, .cls-7, .cls-8, .cls-9, .cls-10 {
        stroke-width: 0px;
      }

      .cls-1, .cls-9 {
        fill: #fff;
      }

      .cls-11 {
        fill: none;
        stroke: #cdcccc;
      }

      .cls-2 {
        fill: #4b8431;
      }

      .cls-3 {
        fill: #55b258;
      }

      .cls-4 {
        fill: #2f2f41;
      }

      .cls-5 {
        fill: #403d56;
      }

      .cls-6 {
        fill: #203c89;
      }

      .cls-7 {
        fill: #a7c856;
      }

      .cls-8 {
        fill: #cdcccc;
      }

      .cls-10 {
        fill: #f6b6b8;
      }
    </style>
  </defs>
  <g id="Capa_1-2" data-name="Capa 1">
    <circle id="Ellipse_124" data-name="Ellipse 124" class="cls-1" cx="158.38" cy="158.38" r="158.38"/>
    <g id="undraw_browsing_online_re_umsa" data-name="undraw browsing online re umsa">
      <path id="Path_562" data-name="Path 562" class="cls-10" d="m264.2,188.63l3.57-37.84,10.64.37-8.43,37.37c1.86,1.56,2.11,4.34.54,6.21-1.56,1.86-4.34,2.11-6.21.54-1.86-1.56-2.11-4.34-.54-6.21.13-.15.27-.3.42-.44h0Z"/>
      <path id="Path_2354" data-name="Path 2354" class="cls-2" d="m297.44,267.41c-.15,5.46-1.06,10.87-2.72,16.07-.04.12-.08.24-.12.36h-10.14c.01-.11.02-.23.03-.36.68-7.77,4.57-55.05-.09-63.14.41.66,13.81,22.38,13.02,47.07Z"/>
      <path id="Path_2355" data-name="Path 2355" class="cls-3" d="m296.68,283.48c-.08.12-.17.24-.26.36h-7.6c.06-.1.12-.22.2-.36,1.26-2.27,4.97-9.04,8.42-16.07,3.71-7.55,7.11-15.39,6.82-18.22.09.64,2.65,20.14-7.59,34.29Z"/>
      <g id="Rectangle_609" data-name="Rectangle 609">
        <rect class="cls-9" x="87.2" y="85.45" width="113.6" height="93.56" rx="5" ry="5"/>
        <rect class="cls-11" x="87.7" y="85.95" width="112.6" height="92.56" rx="4.5" ry="4.5"/>
      </g>
      <circle id="Ellipse_474" data-name="Ellipse 474" class="cls-6" cx="187.05" cy="100.88" r="7.98"/>
      <path id="Path_2363" data-name="Path 2363" class="cls-8" d="m168.62,95.56c.73,0,1.33.6,1.33,1.33s-.6,1.33-1.33,1.33h-62.71c-.73,0-1.33-.6-1.33-1.33s.6-1.33,1.33-1.33h62.71Z"/>
      <path id="Path_2364" data-name="Path 2364" class="cls-8" d="m168.62,103.54c.73,0,1.33.6,1.33,1.33s-.6,1.33-1.33,1.33h-26.98c-.73,0-1.33-.6-1.33-1.33s.6-1.33,1.33-1.33h26.98Z"/>
      <path id="Path_2366" data-name="Path 2366" class="cls-4" d="m232.17,276.31h8.08l4.77-67.17.18,17.07,17.62,46.98,6.97-5.51-11.56-46.8,5.51-26.06h-35.97l4.4,81.48Z"/>
      <circle id="Ellipse_475" data-name="Ellipse 475" class="cls-10" cx="245.01" cy="102.34" r="9.54"/>
      <path id="Path_2370" data-name="Path 2370" class="cls-5" d="m226.66,199.97c15.59-4,30.22-6.7,39.27-1.83-1.59-16.67.25-37.94,5.69-60.18,1.77-7.22.57-13.73-5.87-17.45l-8.62-4.95-13.21.37-6.89,3.81c-6.93,3.46-10.71,11.1-9.27,18.71,3.71,19.49,1.7,40.53-1.09,61.53Z"/>
      <path id="Path_2372" data-name="Path 2372" class="cls-5" d="m262.26,153.36l17.25-1.1c-1.35-16.97-5.18-26.25-11.01-29.36l-6.24,7.34v23.12Z"/>
      <path id="Path_2375" data-name="Path 2375" class="cls-7" d="m72.55,167.63h105.8c1.08,0,1.96-.88,1.96-1.96v-46.43c0-1.08-.88-1.96-1.96-1.96h-105.8c-1.08,0-1.96.88-1.96,1.96v46.43c0,1.08.88,1.96,1.96,1.96h0Z"/>
      <path id="Path_2376" data-name="Path 2376" class="cls-9" d="m156.81,133.46c.73,0,1.33.6,1.33,1.33s-.6,1.33-1.33,1.33h-62.71c-.73,0-1.33-.6-1.33-1.33s.6-1.33,1.33-1.33h62.71Z"/>
      <path id="Path_2377" data-name="Path 2377" class="cls-9" d="m156.81,141.17c.73,0,1.33.6,1.33,1.33s-.6,1.33-1.33,1.33h-62.71c-.73,0-1.33-.6-1.33-1.33s.6-1.33,1.33-1.33h62.71Z"/>
      <path id="Path_2378" data-name="Path 2378" class="cls-9" d="m156.81,148.79c.73,0,1.33.6,1.33,1.33s-.6,1.33-1.33,1.33h-26.98c-.73,0-1.33-.6-1.33-1.33s.6-1.33,1.33-1.33h26.98Z"/>
      <path id="Path_1784" data-name="Path 1784" class="cls-4" d="m241.76,89.78c.89.05,1.77.25,2.6.57,1.8.39,3.64-.42,5.49-.42,1.59.09,3.14.55,4.52,1.35,1.12.53,2.13,1.24,3.01,2.11.88.88,1.4,2.07,1.44,3.31-.12.71-.1,1.44.07,2.15.19.35.41.69.66,1,.46.74.58,1.65.31,2.49-.37.82-.87,1.57-1.48,2.22-1.19,1.53-1.93,3.35-3,4.97-.47.7-.99,1.37-1.57,1.99-.09.11-.21.2-.34.26-.13.04-.26.06-.39.06-2.26.23-4.54-.04-6.69-.77-.67-.23-1.24-.69-1.61-1.29-.3-.83-.36-1.72-.16-2.58.09-.95.07-1.92-.07-2.87,0-.32-.14-.63-.37-.85-.35-.22-.79-.23-1.15-.04-.35.19-.74.3-1.14.34-.78,0-1.28-.89-1.43-1.66.17-1.42-.44-2.82-1.6-3.65-1.09-1.38-1.46-3.2-.98-4.9.52-1.6,2.1-3.62,3.89-3.8Z"/>
      <path id="Path_563" data-name="Path 563" class="cls-10" d="m223.46,187.16l3.57-37.84,10.64.37-8.43,37.37c1.86,1.56,2.11,4.34.54,6.21-1.56,1.86-4.34,2.11-6.21.54-1.86-1.56-2.11-4.34-.54-6.21.13-.15.27-.3.42-.44h0Z"/>
      <path id="Path_2374" data-name="Path 2374" class="cls-5" d="m223.36,150.06l16.15,3.67.73-26.43-9.18.37-7.71,22.39Z"/>
      <path id="Path_564" data-name="Path 564" class="cls-4" d="m240.5,275.65h-11.71c-4.12,0-7.46,3.34-7.46,7.46v.24h19.18v-7.71Z"/>
      <path id="Path_565" data-name="Path 565" class="cls-4" d="m269.92,266.38l-9.85,6.34h0c-3.47,2.23-4.46,6.85-2.23,10.32l.13.2,16.12-10.38-4.17-6.48Z"/>
    </g>
  </g>
</svg>