<?xml version="1.0" encoding="UTF-8"?><svg id="Capa_2" xmlns="http://www.w3.org/2000/svg" viewBox="0 0 590.74 393.37"><defs><style>.cls-1{fill:#e6e6e6;}.cls-2{fill:#fff;}.cls-3{fill:#ffb6b6;}.cls-4{fill:#e4e4e4;}.cls-5{fill:#fcf9f9;}.cls-6{fill:#3195da;}.cls-7{fill:#a7ca57;}.cls-8{fill:#121010;}.cls-9{fill:#16a7a7;}.cls-10{fill:#2a64a8;}.cls-11{fill:#2f2e41;}</style></defs><g id="Capa_1-2"><path id="Trazado_496" class="cls-3" d="m375.2,218.46c4.3-.9,7.09-5.08,6.26-9.4-.09-.46-.22-.91-.39-1.34l21.47-18.51-14.04-3.97-18.24,18.19c-3.99,1.9-5.71,6.65-3.86,10.67,1.55,3.33,5.21,5.15,8.8,4.37h0Z"/><path id="Trazado_497" class="cls-9" d="m514.66,349.75l.78-17.55c8.14-4.35,17.21-6.65,26.44-6.69-12.7,10.38-11.11,30.4-19.72,44.36-5.51,8.78-14.71,14.58-25,15.76l-10.63,6.51c-2.95-16.45,1.45-33.37,12.04-46.3,2.97-3.55,6.38-6.72,10.14-9.42,2.54,6.71,5.95,13.35,5.95,13.35Z"/><path id="Trazado_498" class="cls-3" d="m487.27,383.09h-9.62l-4.58-37.11h14.2v37.11Z"/><path id="Trazado_499" class="cls-11" d="m489.73,392.42h-31.03v-.39c0-6.67,5.41-12.07,12.08-12.08h0l5.67-4.3,10.57,4.3h2.71v12.47Z"/><path id="Trazado_500" class="cls-3" d="m442.57,383.09h-9.62l-4.58-37.11h14.2v37.11Z"/><path id="Trazado_501" class="cls-11" d="m445.03,392.42h-31.03v-.39c0-6.67,5.41-12.07,12.08-12.08h0l5.67-4.3,10.57,4.3h2.71v12.47Z"/><path id="Trazado_502" class="cls-11" d="m438.41,180.19l62.59,1.57c11.89,6.46,12.07,20.43,8.17,37.02,0,0,1.32,9.86-1.32,12.49s-3.94,2.63-2.63,7.23-5.63,12.12-4.79,12.96,2.82,5.45,2.82,5.45l-6.57,37.47s-4.6,65.08-5.92,66.4-2.63,0-1.32,3.29,2.63,1.97,1.32,3.29c-1.16,1.26-2.26,2.57-3.29,3.94h-15.89s-1.2-6.57-1.2-7.23-1.32-4.6-1.32-5.26,1.16-1.82,1.16-1.82c.4-1.34.67-2.71.81-4.1,0-1.32,3.94-51.93,3.94-51.93l-7.89-65.74-19.06,64.42s0,56.54-1.32,57.85-1.32.66-.66,3.29,3.29,1.97,1.32,3.94-2.63-1.32-1.97,1.97l.66,3.29-19.72.28s-2.63-5.54-1.32-7.51,1.24-1.43-.37-4.66-2.26-3.89-1.6-4.54.66-4.15.66-4.15l3.29-62.9s.66-66.4.66-68.37c.05-1.01-.14-2.03-.55-2.96v-2.68l2.52-9.49,8.79-22.81Z"/><path id="Trazado_503" class="cls-7" d="m374.47,197.11l10.58,8.53,57.66-44.7-3.41-77.79h0c-6.55,5.24-10.73,12.88-11.62,21.22l-9.88,43.95-43.33,48.8Z"/><path id="Trazado_504" class="cls-7" d="m429.07,199.84c20.41,2.61,39.22-5.29,56.98-11.26,8.02-2.69,16.1.12,23.54-4.44-3.22-31.71-.09-67.43,6.74-105.49.81-4.46-1.82-8.82-6.13-10.2l-22.04-6.32-6.78-7.48-17.52,4.45-6.13,11.09-21.08,14.24c-2.51,1.7-3.8,4.71-3.28,7.7,6.33,35.8,4.87,72.54-4.3,107.71Z"/><path id="Trazado_505" class="cls-3" d="m494.21,209.65c3.89-2.04,5.43-6.82,3.46-10.75-.21-.42-.46-.81-.74-1.19l15.61-23.67h-14.59s-12.59,22.49-12.59,22.49c-3.32,2.92-3.68,7.96-.81,11.32,2.4,2.78,6.41,3.53,9.66,1.8h0Z"/><path id="Trazado_506" class="cls-7" d="m489.8,187.55l9.55,12.28,33.44-49.82-2.89-50.61c-.75-13.1-8.16-24.91-19.63-31.28h0l.68,77.79-21.15,41.63Z"/><circle id="Elipse_92" class="cls-3" cx="465.79" cy="30.37" r="21.38"/><path id="Trazado_507" class="cls-11" d="m452.17,17.82c.83,0,1.65.11,2.45.32,1.58.38,3.18.65,4.8.8,10.19.96,18.41,8.74,19.91,18.86,1.24-1.08,4.07-3.08,6.39-1.22h0s.06.04.14,0c1.54-.73,4.27-9.72,4.35-17.63.04-4.2-.62-9.56-4.01-11.26l-.18-.09-.05-.19c-.23-.95-2.76-2.56-7.17-3.81-8.01-2.28-19.95-6.72-26.67-.18-.51,2.2-2.16,6.92-3.84,7.46-1.85.59-3.45,1.1-3.7,3.37-.21,3.23-.19,6.47.05,9.7.63-1.98,1.86-3.71,3.52-4.95,1.18-.8,2.58-1.21,4-1.19h0Z"/><path id="Trazado_508" class="cls-8" d="m590.74,392.55c0,.45-.36.81-.81.81H.81c-.45,0-.81-.36-.81-.81s.36-.81.81-.81h589.11c.45,0,.81.36.81.81h0s0,0,0,0Z"/><path id="Trazado_509" class="cls-1" d="m243.81,69.01l-80.26,18.06c-4.48,1.01-7.29,5.46-6.29,9.94l22.01,97.83,94.31-21.22c.78-.17,1.48-.56,2.04-1.13l-21.88-97.2c-1.01-4.48-5.46-7.29-9.94-6.29Z"/><path id="Trazado_510" class="cls-2" d="m214.65,82.48l-43.99,9.9c-4.08.92-6.64,4.97-5.73,9.05l20.69,91.98,83.76-18.84-15.07-66.99c-4.04-17.87-21.79-29.1-39.67-25.1Z"/><path id="Trazado_511" class="cls-4" d="m253.28,169.6l-55.22,12.42c-.99.22-1.62,1.21-1.4,2.21.22.99,1.21,1.62,2.21,1.39l55.22-12.42c.99-.22,1.62-1.21,1.4-2.21-.22-.99-1.21-1.62-2.21-1.39Z"/><path id="Trazado_512" class="cls-4" d="m251.68,162.48l-55.22,12.42c-1,.18-1.67,1.14-1.49,2.14s1.14,1.67,2.14,1.49c.05,0,.11-.02.16-.04l55.22-12.42c1-.18,1.67-1.14,1.49-2.14-.18-1-1.14-1.67-2.14-1.49-.05,0-.11.02-.16.04Z"/><path id="Trazado_513" class="cls-4" d="m218.79,162.41l-23.94,5.39c-.99.22-1.62,1.21-1.4,2.21.22.99,1.21,1.62,2.21,1.39l23.94-5.39c.99-.22,1.62-1.21,1.4-2.21-.22-.99-1.21-1.62-2.21-1.39h0Z"/><path id="Trazado_514" class="cls-4" d="m246.72,140.46l-55.22,12.42c-.98.27-1.56,1.28-1.29,2.27.25.92,1.17,1.5,2.11,1.33l55.22-12.42c.98-.27,1.56-1.28,1.29-2.27-.25-.92-1.17-1.5-2.11-1.33h0Z"/><path id="Trazado_515" class="cls-4" d="m245.12,133.35l-55.22,12.42c-.99.22-1.62,1.21-1.4,2.21.22.99,1.21,1.62,2.21,1.39h0l55.22-12.42c.99-.22,1.62-1.21,1.4-2.21-.22-.99-1.21-1.62-2.21-1.39h0Z"/><path id="Trazado_516" class="cls-4" d="m212.24,133.27l-23.94,5.39c-.98.27-1.56,1.28-1.29,2.27.25.92,1.17,1.5,2.11,1.33l23.94-5.39c1-.18,1.67-1.14,1.49-2.14s-1.14-1.67-2.14-1.49c-.05,0-.11.02-.16.04Z"/><path id="Trazado_517" class="cls-6" d="m240.17,111.32l-55.22,12.42c-.98.27-1.56,1.28-1.29,2.27.25.92,1.17,1.5,2.11,1.33l55.22-12.42c.98-.27,1.56-1.28,1.29-2.27-.25-.92-1.17-1.5-2.11-1.33h0Z"/><path id="Trazado_518" class="cls-6" d="m238.57,104.21l-55.22,12.42c-1,.18-1.67,1.14-1.49,2.14s1.14,1.67,2.14,1.49c.05,0,.11-.02.16-.04l55.22-12.42c.98-.27,1.56-1.28,1.29-2.27-.25-.92-1.17-1.5-2.11-1.33h0Z"/><path id="Trazado_519" class="cls-6" d="m205.68,104.13l-23.94,5.39c-1,.18-1.67,1.14-1.49,2.14s1.14,1.67,2.14,1.49c.05,0,.11-.02.16-.04l23.94-5.39c1-.18,1.67-1.14,1.49-2.14s-1.14-1.67-2.14-1.49c-.05,0-.11.02-.16.04Z"/><path id="Trazado_520" class="cls-10" d="m83.67,182.52c-1.09,0-1.97.88-1.97,1.97v204.07c0,1.09.88,1.97,1.97,1.97h255.86c1.09,0,1.97-.88,1.97-1.97v-171.31c0-1.09-.88-1.97-1.97-1.97h-146.85c-1.49,0-2.93-.55-4.03-1.56l-33.01-30c-.85-.77-1.96-1.2-3.11-1.2h-68.86Z"/><path id="Trazado_521" class="cls-1" d="m389.02,129.14l-137-58.9c-7.65-3.28-16.5.26-19.8,7.89l-71.79,166.98,160.97,69.2c1.32.57,2.78.75,4.2.52l71.32-165.9c3.28-7.65-.26-16.5-7.9-19.8h0Z"/><path id="Trazado_522" class="cls-2" d="m331.9,117.89l-75.08-32.28c-6.96-2.99-15.03.23-18.03,7.18l-67.49,156.99,142.96,61.46,49.15-114.33c13.08-30.53-1.01-65.88-31.51-79.03Z"/><path id="Trazado_523" class="cls-4" d="m295.9,286.84l-94.25-40.52c-1.71-.71-3.66.1-4.37,1.8-.7,1.68.07,3.6,1.73,4.34l94.25,40.52c1.71.71,3.66-.1,4.37-1.8.7-1.68-.07-3.6-1.73-4.34Z"/><path id="Trazado_524" class="cls-4" d="m301.12,274.69l-94.25-40.52c-1.7-.73-3.67.05-4.4,1.75s.05,3.67,1.75,4.4l94.25,40.52c1.7.73,3.67-.05,4.4-1.75.73-1.7-.05-3.67-1.75-4.4h0Z"/><path id="Trazado_525" class="cls-4" d="m252.95,239.59l-40.86-17.57c-1.69-.75-3.66.01-4.41,1.7-.75,1.69.01,3.66,1.7,4.41.02.01.05.02.07.03l40.86,17.57c1.7.71,3.66-.1,4.37-1.8.7-1.68-.07-3.61-1.73-4.34h0Z"/><path id="Trazado_526" class="cls-4" d="m317.28,237.1l-94.25-40.52c-1.7-.73-3.67.05-4.4,1.75s.05,3.67,1.75,4.4l94.25,40.52c1.7.73,3.67-.05,4.4-1.75.73-1.7-.05-3.67-1.75-4.4h0Z"/><path id="Trazado_527" class="cls-4" d="m322.5,224.96l-94.25-40.52c-1.69-.75-3.66.01-4.41,1.7-.75,1.69.01,3.66,1.7,4.41.02.01.05.02.07.03l94.25,40.52c1.7.71,3.66-.1,4.37-1.8.7-1.68-.07-3.61-1.73-4.34h0Z"/><path id="Trazado_528" class="cls-4" d="m274.33,189.86l-40.86-17.57c-1.7-.73-3.67.05-4.4,1.75s.05,3.67,1.75,4.4l40.86,17.57c1.7.73,3.67-.05,4.4-1.75.73-1.7-.05-3.67-1.75-4.4h0Z"/><path id="Trazado_529" class="cls-7" d="m338.66,187.37l-94.25-40.52c-1.7-.73-3.67.05-4.4,1.75-.73,1.7.05,3.67,1.75,4.4l94.25,40.52c1.7.73,3.67-.05,4.4-1.75.73-1.7-.05-3.67-1.75-4.4h0Z"/><path id="Trazado_530" class="cls-7" d="m343.88,175.23l-94.25-40.52c-1.7-.73-3.67.05-4.4,1.75-.73,1.7.05,3.67,1.75,4.4h0l94.25,40.52c1.7.73,3.67-.05,4.4-1.75.73-1.7-.05-3.67-1.75-4.4h0Z"/><path id="Trazado_531" class="cls-7" d="m295.71,140.12l-40.86-17.57c-1.7-.73-3.67.05-4.4,1.75-.73,1.7.05,3.67,1.75,4.4l40.86,17.57c1.7.73,3.67-.05,4.4-1.75.73-1.7-.05-3.67-1.75-4.4Z"/><path id="Trazado_532" class="cls-1" d="m193.99,189.79l-80.26,18.06c-4.48,1.01-7.29,5.46-6.29,9.94l22.01,97.83,94.31-21.22c.78-.17,1.48-.56,2.04-1.13l-21.88-97.2c-1.01-4.48-5.46-7.29-9.94-6.29h0Z"/><path id="Trazado_533" class="cls-2" d="m164.83,203.26l-43.99,9.9c-4.08.92-6.64,4.97-5.73,9.05l20.69,91.98,83.76-18.84-15.07-66.99c-4.04-17.87-21.79-29.1-39.67-25.1Z"/><path id="Trazado_534" class="cls-4" d="m203.46,290.39l-55.22,12.42c-.99.23-1.61,1.22-1.39,2.21.23.99,1.21,1.61,2.2,1.39l55.22-12.42c.99-.23,1.61-1.22,1.39-2.21-.23-.99-1.21-1.61-2.2-1.39Z"/><path id="Trazado_535" class="cls-4" d="m201.86,283.27l-55.22,12.42c-1,.18-1.67,1.14-1.49,2.14.18,1,1.14,1.67,2.14,1.49.06,0,.11-.02.16-.04l55.22-12.42c.98-.27,1.56-1.28,1.29-2.27-.25-.92-1.16-1.5-2.11-1.33Z"/><path id="Trazado_536" class="cls-4" d="m168.98,283.19l-23.94,5.39c-.99.23-1.61,1.22-1.39,2.21.23.99,1.21,1.61,2.2,1.39l23.94-5.39c.99-.22,1.62-1.21,1.4-2.2-.22-.99-1.21-1.62-2.2-1.4h-.01Z"/><path id="Trazado_537" class="cls-4" d="m196.91,261.25l-55.22,12.42c-1,.18-1.67,1.14-1.49,2.14.18,1,1.14,1.67,2.14,1.49.06,0,.11-.02.16-.04l55.22-12.42c.98-.27,1.56-1.28,1.29-2.27-.25-.92-1.16-1.5-2.11-1.33h0Z"/><path id="Trazado_538" class="cls-4" d="m195.31,254.13l-55.22,12.42c-.99.23-1.61,1.22-1.39,2.21.23.99,1.21,1.61,2.2,1.39l55.22-12.42c.99-.23,1.61-1.22,1.39-2.21-.23-.99-1.21-1.61-2.2-1.39Z"/><path id="Trazado_539" class="cls-4" d="m162.42,254.05l-23.94,5.39c-1,.18-1.67,1.14-1.49,2.14.18,1,1.14,1.67,2.14,1.49.06,0,.11-.02.16-.04l23.94-5.39c.98-.27,1.56-1.28,1.29-2.27-.25-.92-1.16-1.5-2.11-1.33Z"/><path id="Trazado_540" class="cls-7" d="m190.35,232.11l-55.22,12.42c-.98.27-1.56,1.28-1.29,2.27.25.92,1.16,1.5,2.11,1.33l55.22-12.42c1-.18,1.67-1.14,1.49-2.14s-1.14-1.67-2.14-1.49c-.05,0-.11.02-.16.04h0Z"/><path id="Trazado_541" class="cls-7" d="m188.75,224.99l-55.22,12.42c-1,.18-1.67,1.14-1.49,2.14s1.14,1.67,2.14,1.49c.05,0,.11-.02.16-.04l55.22-12.42c.98-.27,1.56-1.28,1.29-2.27-.25-.92-1.17-1.5-2.11-1.33h0Z"/><path id="Trazado_542" class="cls-7" d="m155.87,224.91l-23.94,5.39c-.98.27-1.56,1.28-1.29,2.27.25.92,1.17,1.5,2.11,1.33l23.94-5.39c.98-.27,1.56-1.28,1.29-2.27-.25-.92-1.17-1.5-2.11-1.33Z"/><path id="Trazado_543" class="cls-10" d="m81.98,236.12c-1.09,0-1.97.88-1.97,1.97h0c0,.07.06,152.06.06,152.06.11,1,.96,1.75,1.96,1.75h274.85c1,0,1.85-.75,1.96-1.75l17.11-151.84c.06-.56-.11-1.12-.49-1.54-.37-.42-.91-.66-1.47-.66H81.98Z"/><path id="Trazado_545" class="cls-5" d="m177.59,332.78h-67.59c-1.45,0-2.63-1.18-2.63-2.63s1.18-2.63,2.63-2.63h67.59c3.4-.05,3.43,5.32,0,5.27Z"/><path id="Trazado_546" class="cls-5" d="m268.64,346.55H110c-1.45,0-2.63-1.18-2.63-2.63s1.18-2.63,2.63-2.63h158.64c3.4-.05,3.43,5.32,0,5.27Z"/></g></svg>